<?xml version="1.0" encoding="UTF-8" standalone="no"?>
<!-- Created with Inkscape (http://www.inkscape.org/) -->

<svg
   width="135.34314mm"
   height="132.47437mm"
   viewBox="0 0 135.34314 132.47437"
   version="1.1"
   id="svg5"
   sodipodi:docname="The NEW Zetvue Logo.svg"
   inkscape:version="1.2 (dc2aedaf03, 2022-05-15)"
   inkscape:export-filename="The NEW Zetvue Logo.png"
   inkscape:export-xdpi="396.875"
   inkscape:export-ydpi="396.875"
   xml:space="preserve"
   xmlns:inkscape="http://www.inkscape.org/namespaces/inkscape"
   xmlns:sodipodi="http://sodipodi.sourceforge.net/DTD/sodipodi-0.dtd"
   xmlns="http://www.w3.org/2000/svg"
   xmlns:svg="http://www.w3.org/2000/svg"><sodipodi:namedview
     id="namedview7"
     pagecolor="#ffffff"
     bordercolor="#999999"
     borderopacity="1"
     inkscape:pageshadow="0"
     inkscape:pageopacity="0"
     inkscape:pagecheckerboard="0"
     inkscape:deskcolor="#d1d1d1"
     inkscape:document-units="mm"
     showgrid="true"
     inkscape:zoom="0.125"
     inkscape:cx="907.99999"
     inkscape:cy="1460"
     inkscape:window-width="1366"
     inkscape:window-height="715"
     inkscape:window-x="-8"
     inkscape:window-y="-8"
     inkscape:window-maximized="1"
     inkscape:current-layer="layer1"
     inkscape:showpageshadow="2"><inkscape:grid
       type="xygrid"
       id="grid132"
       spacingx="4.2333332"
       spacingy="4.2333332"
       originx="128"
       originy="128"
       enabled="false" /><inkscape:grid
       type="axonomgrid"
       id="grid3387"
       spacingy="16"
       originx="128"
       originy="128"
       empspacing="10"
       enabled="false" /></sodipodi:namedview><defs
     id="defs2" /><g
     inkscape:label="Layer 1"
     inkscape:groupmode="layer"
     id="layer1"
     transform="translate(-578.33815,-98.635775)"><path
       style="fill:#E5383B;stroke-width:0.264583"
       d="m 624.70374,230.98709 c -1.3918,-0.36316 -4.94636,-1.77796 -7.54062,-3.00133 -19.11817,-9.01554 -33.12659,-26.8659 -37.41377,-47.67485 -2.65155,-12.86996 -1.5452,-26.39882 3.13836,-38.37701 6.10616,-15.61649 17.65562,-28.45463 32.29103,-35.89403 10.21897,-5.19446 19.67179,-7.445586 31.08854,-7.403516 8.87639,0.0327 16.67653,1.494926 24.41147,4.576226 30.8089,12.27306 48.29185,44.69562 41.57309,77.09833 -3.98595,19.22316 -15.94262,35.65387 -33.06745,45.44087 -3.65409,2.08835 -9.49375,4.63868 -12.01502,5.24728 -1.21937,0.29433 -2.64826,-0.10428 -3.45682,-0.96434 -0.64423,-0.68525 -0.64423,-0.68525 -0.7968,-12.76911 -0.14452,-11.44536 -0.18335,-12.18646 -0.73503,-14.02555 -0.74523,-2.48431 -1.66349,-4.28779 -2.85427,-5.60583 -1.08773,-1.204 -1.15054,-1.15519 2.02208,-1.57133 18.34038,-2.40562 27.75089,-13.35546 27.7764,-32.31993 0.006,-4.22026 -0.45917,-7.23168 -1.60519,-10.39886 -0.8233,-2.27531 -3.0234,-6.08033 -4.46519,-7.72243 -0.77179,-0.87902 -0.77179,-0.87902 -0.2456,-2.67406 0.67078,-2.28825 0.92935,-6.96999 0.53022,-9.60025 -0.16561,-1.0914 -0.61295,-3.01584 -0.99408,-4.27653 -0.66318,-2.19362 -0.73044,-2.29919 -1.56445,-2.45565 -1.08945,-0.20439 -3.71136,0.20384 -5.94951,0.92632 -2.26093,0.72983 -6.99689,3.05439 -9.70669,4.76435 -2.17721,1.37388 -2.17721,1.37388 -4.36562,0.83138 -4.97731,-1.23387 -7.67253,-1.5096 -14.75612,-1.5096 -7.07812,0 -9.77935,0.27592 -14.74059,1.5057 -2.17288,0.53861 -2.17288,0.53861 -4.77962,-1.07244 -5.90565,-3.6499 -12.47455,-5.99964 -15.29829,-5.47232 -0.77023,0.14384 -0.86178,0.2921 -1.52135,2.46373 -1.40361,4.62139 -1.58992,10.24022 -0.45825,13.82006 0.54367,1.7198 0.54367,1.7198 0.0101,2.38125 -1.38614,1.7184 -3.51281,5.16941 -4.24286,6.885 -1.43325,3.36808 -1.87313,5.5614 -2.02564,10.10014 -0.41108,12.2343 3.25516,21.74799 10.54155,27.35474 4.08671,3.14465 10.29916,5.53837 16.77224,6.46252 3.60678,0.51494 3.46416,0.42128 2.4131,1.58468 -1.12869,1.24933 -2.41549,3.91516 -2.90713,6.02262 -0.20656,0.88545 -0.45255,1.73448 -0.54665,1.88672 -0.31775,0.51413 -4.3914,1.61366 -6.57769,1.7754 -5.26964,0.38985 -9.23497,-1.73628 -12.61585,-6.76437 -2.55821,-3.8046 -4.7472,-5.73075 -7.81162,-6.87364 -1.71431,-0.63937 -4.01679,-0.77551 -5.22552,-0.30898 -1.51787,0.58584 -0.78351,1.84172 2.4474,4.18547 2.80535,2.03505 4.28746,4.07523 6.8785,9.46853 1.40314,2.92067 1.90221,3.67747 3.43771,5.21295 3.40577,3.40578 7.98219,4.92732 13.89203,4.61874 1.74687,-0.0912 3.64904,-0.27994 4.22704,-0.41939 0.57799,-0.13946 1.07966,-0.2248 1.11481,-0.18965 0.0352,0.0351 0.0792,2.89032 0.0978,6.34482 0.0289,5.35989 -0.0284,6.37598 -0.3909,6.92925 -0.82639,1.26123 -2.45796,1.8575 -3.98931,1.45792 z"
       id="path5572" /></g></svg>
