<svg width="342.1" height="72.6" viewBox="0 0 342.1 72.6" xmlns="http://www.w3.org/2000/svg"><g id="svgGroup" stroke-linecap="round" fill-rule="evenodd" font-size="9pt" stroke="#ffffff" stroke-width="0.25mm" fill="#ffffff" style="stroke:#ffffff;stroke-width:0.25mm;fill:#ffffff"><path d="M 0 65.9 L 0 28.5 Q 0 26.9 0.3 25.6 A 3.143 3.143 0 0 1 1.413 23.846 A 4.383 4.383 0 0 1 1.9 23.5 A 4.267 4.267 0 0 1 2.908 23.063 Q 3.933 22.755 5.45 22.708 A 18.055 18.055 0 0 1 6 22.7 A 11.15 11.15 0 0 1 7.509 22.795 Q 9.248 23.033 10.215 23.87 A 3.402 3.402 0 0 1 10.25 23.9 Q 11.347 24.875 11.553 26.774 A 8.608 8.608 0 0 1 11.6 27.7 L 10.7 30.5 A 6.572 6.572 0 0 1 11.173 29.647 Q 11.65 28.913 12.4 28.1 Q 13.6 26.8 15.35 25.5 A 15.189 15.189 0 0 1 18.757 23.608 A 17.229 17.229 0 0 1 19.3 23.4 Q 21.5 22.6 23.9 22.6 A 17.233 17.233 0 0 1 27.787 23.024 A 14.752 14.752 0 0 1 29.95 23.7 Q 32.7 24.8 34.85 26.9 A 19.455 19.455 0 0 1 37.546 30.213 A 23.681 23.681 0 0 1 38.6 32 Q 40.3 29.4 42.4 27.25 Q 44.5 25.1 47.3 23.85 A 14.356 14.356 0 0 1 51.481 22.722 A 17.92 17.92 0 0 1 53.6 22.6 A 19.24 19.24 0 0 1 58.165 23.116 A 14.439 14.439 0 0 1 63.35 25.5 A 16.509 16.509 0 0 1 67.883 30.646 A 21.859 21.859 0 0 1 69.35 33.75 A 29.235 29.235 0 0 1 70.855 39.414 Q 71.298 42.071 71.381 45.088 A 51.321 51.321 0 0 1 71.4 46.5 L 71.4 65.9 A 14.166 14.166 0 0 1 71.313 67.507 A 10.501 10.501 0 0 1 71.05 68.95 A 3.522 3.522 0 0 1 69.565 71.024 A 4.546 4.546 0 0 1 69.45 71.1 Q 68.2 71.9 65.4 71.9 Q 62.942 71.9 61.64 71.245 A 3.471 3.471 0 0 1 61.3 71.05 A 4.08 4.08 0 0 1 60.388 70.252 A 3.268 3.268 0 0 1 59.7 68.85 Q 59.402 67.511 59.4 65.827 A 19.127 19.127 0 0 1 59.4 65.8 L 59.4 46.4 A 25.624 25.624 0 0 0 59.24 43.456 Q 59.065 41.946 58.699 40.648 A 14.436 14.436 0 0 0 58.5 40 A 11.427 11.427 0 0 0 57.629 38.004 Q 56.918 36.742 55.931 35.87 A 7.271 7.271 0 0 0 55.85 35.8 A 6.075 6.075 0 0 0 53.101 34.477 A 8.7 8.7 0 0 0 51.3 34.3 A 10.387 10.387 0 0 0 48.715 34.608 A 8.18 8.18 0 0 0 46.15 35.75 A 9.009 9.009 0 0 0 43.482 38.591 A 11.551 11.551 0 0 0 42.8 39.9 A 13.004 13.004 0 0 0 41.939 42.695 Q 41.6 44.428 41.6 46.5 L 41.6 66 A 10.144 10.144 0 0 1 41.385 68.124 A 8.758 8.758 0 0 1 41.1 69.15 A 3.793 3.793 0 0 1 39.284 71.278 A 4.927 4.927 0 0 1 39.15 71.35 Q 37.815 72.041 35.419 71.926 A 16.179 16.179 0 0 1 35 71.9 A 11.688 11.688 0 0 1 33.701 71.781 Q 32.375 71.577 31.577 71.061 A 3.091 3.091 0 0 1 31.35 70.9 A 3.898 3.898 0 0 1 30.403 69.852 A 3.544 3.544 0 0 1 29.95 68.65 A 15.184 15.184 0 0 1 29.712 66.449 A 17.426 17.426 0 0 1 29.7 65.8 L 29.7 46.4 Q 29.7 42.7 28.8 39.95 A 11.415 11.415 0 0 0 27.967 38 Q 27.216 36.634 26.15 35.75 Q 24.492 34.377 21.803 34.304 A 11.243 11.243 0 0 0 21.5 34.3 A 9.974 9.974 0 0 0 18.927 34.617 A 7.799 7.799 0 0 0 16.25 35.9 Q 14.1 37.5 13 40.2 A 14.579 14.579 0 0 0 12.089 43.639 A 19.408 19.408 0 0 0 11.9 46.4 L 11.9 66 A 12.967 12.967 0 0 1 11.736 68.094 A 11.157 11.157 0 0 1 11.55 69 A 3.369 3.369 0 0 1 9.989 71.126 A 4.132 4.132 0 0 1 9.95 71.15 A 3.953 3.953 0 0 1 9.062 71.529 Q 8.119 71.815 6.689 71.881 A 19.495 19.495 0 0 1 5.8 71.9 A 14.478 14.478 0 0 1 4.414 71.839 Q 3.034 71.705 2.177 71.284 A 3.35 3.35 0 0 1 1.85 71.1 A 3.562 3.562 0 0 1 0.814 70.116 A 3.379 3.379 0 0 1 0.3 68.9 A 13.574 13.574 0 0 1 0.029 66.881 A 16.11 16.11 0 0 1 0 65.9 Z M 104.5 54.3 L 104.5 6.1 A 14.166 14.166 0 0 1 104.587 4.494 A 10.501 10.501 0 0 1 104.85 3.05 A 3.685 3.685 0 0 1 106.224 1.014 A 4.766 4.766 0 0 1 106.45 0.85 A 3.879 3.879 0 0 1 107.437 0.384 Q 108.619 0 110.5 0 A 15.61 15.61 0 0 1 111.878 0.057 Q 113.632 0.213 114.55 0.8 Q 115.8 1.6 116.15 2.95 A 10.591 10.591 0 0 1 116.423 4.483 A 14.294 14.294 0 0 1 116.5 6 L 116.5 53.8 A 23.877 23.877 0 0 0 116.532 55.082 Q 116.59 56.149 116.75 56.95 A 5.489 5.489 0 0 0 117.013 57.867 Q 117.259 58.499 117.65 58.95 A 3.348 3.348 0 0 0 119.031 59.895 A 4.164 4.164 0 0 0 119.35 60 A 7.103 7.103 0 0 0 120.316 60.2 Q 121.033 60.3 121.9 60.3 Q 123.2 60.3 124.25 60.6 Q 125.288 60.897 125.935 62.073 A 4.738 4.738 0 0 1 125.95 62.1 A 4.054 4.054 0 0 1 126.279 62.945 Q 126.528 63.841 126.584 65.181 A 19.598 19.598 0 0 1 126.6 66 A 19.213 19.213 0 0 1 126.551 67.419 Q 126.422 69.156 125.95 70.1 Q 125.3 71.4 124.2 71.7 Q 123.1 72 121.9 72 Q 118.59 72 115.961 71.6 A 27.285 27.285 0 0 1 115.35 71.5 Q 112.5 71 110.45 69.8 Q 108.4 68.6 107.1 66.55 Q 105.8 64.5 105.15 61.5 Q 104.617 59.042 104.521 55.778 A 50.192 50.192 0 0 1 104.5 54.3 Z M 133.6 54.3 L 133.6 6.1 A 14.166 14.166 0 0 1 133.687 4.494 A 10.501 10.501 0 0 1 133.95 3.05 A 3.685 3.685 0 0 1 135.324 1.014 A 4.766 4.766 0 0 1 135.55 0.85 A 3.879 3.879 0 0 1 136.537 0.384 Q 137.719 0 139.6 0 A 15.61 15.61 0 0 1 140.978 0.057 Q 142.732 0.213 143.65 0.8 Q 144.9 1.6 145.25 2.95 A 10.591 10.591 0 0 1 145.523 4.483 A 14.294 14.294 0 0 1 145.6 6 L 145.6 53.8 A 23.877 23.877 0 0 0 145.632 55.082 Q 145.69 56.149 145.85 56.95 A 5.489 5.489 0 0 0 146.113 57.867 Q 146.359 58.499 146.75 58.95 A 3.348 3.348 0 0 0 148.131 59.895 A 4.164 4.164 0 0 0 148.45 60 A 7.103 7.103 0 0 0 149.416 60.2 Q 150.133 60.3 151 60.3 Q 152.3 60.3 153.35 60.6 Q 154.388 60.897 155.035 62.073 A 4.738 4.738 0 0 1 155.05 62.1 A 4.054 4.054 0 0 1 155.379 62.945 Q 155.628 63.841 155.684 65.181 A 19.598 19.598 0 0 1 155.7 66 A 19.213 19.213 0 0 1 155.651 67.419 Q 155.522 69.156 155.05 70.1 Q 154.4 71.4 153.3 71.7 Q 152.2 72 151 72 Q 147.69 72 145.061 71.6 A 27.285 27.285 0 0 1 144.45 71.5 Q 141.6 71 139.55 69.8 Q 137.5 68.6 136.2 66.55 Q 134.9 64.5 134.25 61.5 Q 133.717 59.042 133.621 55.778 A 50.192 50.192 0 0 1 133.6 54.3 Z M 235 54.3 L 235 6.1 A 14.166 14.166 0 0 1 235.087 4.494 A 10.501 10.501 0 0 1 235.35 3.05 A 3.685 3.685 0 0 1 236.724 1.014 A 4.766 4.766 0 0 1 236.95 0.85 A 3.879 3.879 0 0 1 237.937 0.384 Q 239.119 0 241 0 A 15.61 15.61 0 0 1 242.378 0.057 Q 244.132 0.213 245.05 0.8 Q 246.3 1.6 246.65 2.95 A 10.591 10.591 0 0 1 246.923 4.483 A 14.294 14.294 0 0 1 247 6 L 247 53.8 A 23.877 23.877 0 0 0 247.032 55.082 Q 247.09 56.149 247.25 56.95 A 5.489 5.489 0 0 0 247.513 57.867 Q 247.759 58.499 248.15 58.95 A 3.348 3.348 0 0 0 249.531 59.895 A 4.164 4.164 0 0 0 249.85 60 A 7.103 7.103 0 0 0 250.816 60.2 Q 251.533 60.3 252.4 60.3 Q 253.7 60.3 254.75 60.6 Q 255.788 60.897 256.435 62.073 A 4.738 4.738 0 0 1 256.45 62.1 A 4.054 4.054 0 0 1 256.779 62.945 Q 257.028 63.841 257.084 65.181 A 19.598 19.598 0 0 1 257.1 66 A 19.213 19.213 0 0 1 257.051 67.419 Q 256.922 69.156 256.45 70.1 Q 255.8 71.4 254.7 71.7 Q 253.6 72 252.4 72 Q 249.09 72 246.461 71.6 A 27.285 27.285 0 0 1 245.85 71.5 Q 243 71 240.95 69.8 Q 238.9 68.6 237.6 66.55 Q 236.3 64.5 235.65 61.5 Q 235.117 59.042 235.021 55.778 A 50.192 50.192 0 0 1 235 54.3 Z M 320 54.3 L 320 6.1 A 14.166 14.166 0 0 1 320.087 4.494 A 10.501 10.501 0 0 1 320.35 3.05 A 3.685 3.685 0 0 1 321.724 1.014 A 4.766 4.766 0 0 1 321.95 0.85 A 3.879 3.879 0 0 1 322.937 0.384 Q 324.119 0 326 0 A 15.61 15.61 0 0 1 327.378 0.057 Q 329.132 0.213 330.05 0.8 Q 331.3 1.6 331.65 2.95 A 10.591 10.591 0 0 1 331.923 4.483 A 14.294 14.294 0 0 1 332 6 L 332 53.8 A 23.877 23.877 0 0 0 332.032 55.082 Q 332.09 56.149 332.25 56.95 A 5.489 5.489 0 0 0 332.513 57.867 Q 332.759 58.499 333.15 58.95 A 3.348 3.348 0 0 0 334.531 59.895 A 4.164 4.164 0 0 0 334.85 60 A 7.103 7.103 0 0 0 335.816 60.2 Q 336.533 60.3 337.4 60.3 Q 338.7 60.3 339.75 60.6 Q 340.788 60.897 341.435 62.073 A 4.738 4.738 0 0 1 341.45 62.1 A 4.054 4.054 0 0 1 341.779 62.945 Q 342.028 63.841 342.084 65.181 A 19.598 19.598 0 0 1 342.1 66 A 19.213 19.213 0 0 1 342.051 67.419 Q 341.922 69.156 341.45 70.1 Q 340.8 71.4 339.7 71.7 Q 338.6 72 337.4 72 Q 334.09 72 331.461 71.6 A 27.285 27.285 0 0 1 330.85 71.5 Q 328 71 325.95 69.8 Q 323.9 68.6 322.6 66.55 Q 321.3 64.5 320.65 61.5 Q 320.117 59.042 320.021 55.778 A 50.192 50.192 0 0 1 320 54.3 Z M 287.3 72.6 Q 282.5 72.6 277.95 70.75 Q 273.4 68.9 269.75 65.5 Q 266.1 62.1 263.95 57.5 A 23.134 23.134 0 0 1 261.838 48.845 A 27.264 27.264 0 0 1 261.8 47.4 A 24.724 24.724 0 0 1 263.436 38.387 A 23.723 23.723 0 0 1 263.8 37.5 Q 265.8 32.9 269.3 29.4 Q 272.8 25.9 277.35 23.95 Q 281.9 22 287.1 22 A 25.172 25.172 0 0 1 296.68 23.807 A 24.019 24.019 0 0 1 299.8 25.35 Q 305.5 28.7 308.9 34.4 A 24.241 24.241 0 0 1 312.247 45.524 A 29.363 29.363 0 0 1 312.3 47.3 A 26.75 26.75 0 0 1 311.56 53.699 A 22.778 22.778 0 0 1 310.2 57.65 Q 308.1 62.3 304.5 65.65 Q 300.9 69 296.45 70.8 Q 292 72.6 287.3 72.6 Z M 171.5 24.9 L 203.2 61.6 Q 204.861 63.359 205.472 64.736 A 5.535 5.535 0 0 1 205.5 64.8 A 4.191 4.191 0 0 1 205.754 65.593 Q 205.827 65.943 205.827 66.283 A 3.117 3.117 0 0 1 205.6 67.45 A 4.436 4.436 0 0 1 205.158 68.264 Q 204.514 69.225 203.2 70.4 A 16.939 16.939 0 0 1 202.206 71.217 Q 201.234 71.951 200.436 72.278 A 4.507 4.507 0 0 1 200.25 72.35 A 3.034 3.034 0 0 1 199.355 72.531 Q 198.553 72.567 197.75 72.15 A 7.187 7.187 0 0 1 196.916 71.633 Q 195.938 70.938 194.7 69.7 L 163 33 A 19.862 19.862 0 0 1 162.098 31.914 Q 161.213 30.763 160.8 29.8 A 3.724 3.724 0 0 1 160.543 28.933 Q 160.398 28.047 160.744 27.182 A 3.826 3.826 0 0 1 160.8 27.05 A 5.675 5.675 0 0 1 161.354 26.092 Q 162.019 25.15 163.2 24.1 Q 164.774 22.711 165.962 22.265 A 4.038 4.038 0 0 1 166.15 22.2 A 3.11 3.11 0 0 1 167.102 22.048 Q 167.677 22.048 168.251 22.269 A 3.94 3.94 0 0 1 168.65 22.45 Q 169.837 23.067 171.34 24.722 A 22.308 22.308 0 0 1 171.5 24.9 Z M 203.3 33 L 171.6 69.7 Q 169.9 71.5 168.6 72.15 Q 167.318 72.791 166.084 72.313 A 3.317 3.317 0 0 1 166.05 72.3 A 7.186 7.186 0 0 1 165.143 71.853 Q 164.219 71.322 163.1 70.4 Q 161.4 68.7 160.8 67.45 Q 160.312 66.434 160.651 65.318 A 3.967 3.967 0 0 1 160.85 64.8 Q 161.287 63.859 162.152 62.738 A 21.47 21.47 0 0 1 163.1 61.6 L 194.8 24.9 A 19.839 19.839 0 0 1 195.925 23.772 Q 197.687 22.153 198.95 22 Q 200.362 21.829 202.398 23.49 A 15.706 15.706 0 0 1 203.1 24.1 A 17.372 17.372 0 0 1 204.062 25.025 Q 205.155 26.166 205.55 27.1 A 3.399 3.399 0 0 1 205.815 28.165 Q 205.866 28.814 205.65 29.476 A 4.058 4.058 0 0 1 205.55 29.75 A 6.679 6.679 0 0 1 205.094 30.648 Q 204.557 31.547 203.618 32.638 A 24.781 24.781 0 0 1 203.3 33 Z M 81.9 65.9 L 81.9 28.7 Q 81.9 27.1 82.25 25.75 A 3.522 3.522 0 0 1 83.735 23.676 A 4.546 4.546 0 0 1 83.85 23.6 Q 85.1 22.8 87.9 22.8 A 15.61 15.61 0 0 1 89.278 22.857 Q 91.032 23.013 91.95 23.6 A 3.562 3.562 0 0 1 92.987 24.585 A 3.379 3.379 0 0 1 93.5 25.8 A 13.24 13.24 0 0 1 93.743 27.47 A 17.163 17.163 0 0 1 93.8 28.9 L 93.8 66 Q 93.8 67.7 93.5 69.05 A 3.314 3.314 0 0 1 92.103 71.098 A 4.377 4.377 0 0 1 91.95 71.2 A 3.884 3.884 0 0 1 91.015 71.62 Q 89.799 72 87.8 72 A 13.704 13.704 0 0 1 86.392 71.933 Q 84.734 71.761 83.8 71.15 A 4.08 4.08 0 0 1 82.888 70.352 A 3.268 3.268 0 0 1 82.2 68.95 Q 81.902 67.611 81.9 65.927 A 19.127 19.127 0 0 1 81.9 65.9 Z M 287.1 60.8 Q 290.4 60.8 293.45 59.15 A 13.323 13.323 0 0 0 298.327 54.592 A 15.621 15.621 0 0 0 298.45 54.4 A 12.627 12.627 0 0 0 300.246 49.376 A 16.293 16.293 0 0 0 300.4 47.1 A 14.784 14.784 0 0 0 299.906 43.21 A 12.396 12.396 0 0 0 298.65 40.2 Q 296.9 37.2 293.9 35.5 A 13.089 13.089 0 0 0 288.901 33.907 A 16.473 16.473 0 0 0 287 33.8 A 13.461 13.461 0 0 0 282.193 34.646 A 12.624 12.624 0 0 0 280.3 35.55 Q 277.3 37.3 275.55 40.35 A 13.307 13.307 0 0 0 273.821 46.378 A 15.992 15.992 0 0 0 273.8 47.2 A 15.576 15.576 0 0 0 274.211 50.856 A 12.111 12.111 0 0 0 275.7 54.45 Q 277.6 57.5 280.65 59.15 Q 283.7 60.8 287.1 60.8 Z M 219.3 72 Q 215.6 72 214.1 70.55 A 4.04 4.04 0 0 1 213.193 69.164 Q 212.681 67.924 212.611 66.02 A 16.866 16.866 0 0 1 212.6 65.4 A 16.81 16.81 0 0 1 212.664 63.887 Q 212.803 62.347 213.25 61.35 Q 213.9 59.9 215.4 59.2 A 6.462 6.462 0 0 1 216.666 58.774 Q 217.838 58.5 219.4 58.5 Q 223.1 58.5 224.6 60 A 4.163 4.163 0 0 1 225.484 61.375 Q 226.008 62.643 226.086 64.594 A 17.636 17.636 0 0 1 226.1 65.3 A 15.728 15.728 0 0 1 226.03 66.833 Q 225.956 67.585 225.804 68.218 A 6.595 6.595 0 0 1 225.45 69.3 Q 224.8 70.8 223.35 71.4 Q 221.93 71.988 219.408 72 A 22.214 22.214 0 0 1 219.3 72 Z M 83.55 12.25 A 3.65 3.65 0 0 0 83.903 12.445 Q 85.255 13.1 87.8 13.1 A 20.759 20.759 0 0 0 88.769 13.079 Q 91.113 12.969 92.2 12.3 Q 93.5 11.5 93.9 10 A 11.306 11.306 0 0 0 94.093 9.141 A 12.865 12.865 0 0 0 94.3 6.8 Q 94.3 4.9 93.9 3.45 A 4.091 4.091 0 0 0 93.396 2.315 A 4.332 4.332 0 0 0 92.2 1.1 A 3.376 3.376 0 0 0 91.742 0.836 Q 90.839 0.401 89.374 0.264 A 15.843 15.843 0 0 0 87.9 0.2 A 18.43 18.43 0 0 0 87.386 0.207 Q 85.801 0.251 84.71 0.575 A 4.716 4.716 0 0 0 83.6 1.05 A 4.774 4.774 0 0 0 83.107 1.392 A 3.465 3.465 0 0 0 81.85 3.3 A 9.6 9.6 0 0 0 81.756 3.715 Q 81.626 4.354 81.562 5.086 A 17.419 17.419 0 0 0 81.5 6.6 A 16.742 16.742 0 0 0 81.558 8.013 A 13.21 13.21 0 0 0 81.85 9.9 A 3.701 3.701 0 0 0 82.398 11.164 A 3.872 3.872 0 0 0 83.55 12.25 Z" vector-effect="non-scaling-stroke"/></g></svg>