<svg width="639.3" height="84.701" viewBox="0 0 639.3 84.701" xmlns="http://www.w3.org/2000/svg"><g id="svgGroup" stroke-linecap="round" fill-rule="evenodd" font-size="9pt" stroke="#ffffff" stroke-width="0.25mm" fill="#ffffff" style="stroke:#ffffff;stroke-width:0.25mm;fill:#ffffff"><path d="M 258.3 33.5 L 257.5 31.7 Q 257.625 30.39 258.158 29.586 A 2.675 2.675 0 0 1 258.95 28.8 A 4.116 4.116 0 0 1 259.962 28.347 Q 260.935 28.047 262.343 28.007 A 15.746 15.746 0 0 1 262.8 28 A 7.887 7.887 0 0 1 264.048 28.092 Q 264.696 28.197 265.221 28.418 A 3.624 3.624 0 0 1 266.05 28.9 A 2.481 2.481 0 0 1 266.967 30.448 Q 267.061 30.944 267.014 31.543 A 5.683 5.683 0 0 1 267 31.7 L 262.9 63.1 A 5.163 5.163 0 0 0 263.004 64.169 Q 263.206 65.123 263.8 65.75 A 2.51 2.51 0 0 0 264.672 66.329 Q 265.458 66.656 266.669 66.695 A 10.407 10.407 0 0 0 267 66.7 A 8.525 8.525 0 0 0 269.547 66.295 A 11.481 11.481 0 0 0 271.35 65.55 A 11.324 11.324 0 0 0 273.835 63.803 A 15.323 15.323 0 0 0 275.5 62 A 15.605 15.605 0 0 0 277.127 59.442 Q 277.963 57.819 278.6 55.8 A 23.78 23.78 0 0 0 279.42 52.169 Q 279.8 49.638 279.8 46.6 A 34.972 34.972 0 0 0 279.264 40.351 A 27.962 27.962 0 0 0 277.9 35.4 Q 276 30.4 272.3 26.85 A 23.139 23.139 0 0 0 266.338 22.749 A 29.038 29.038 0 0 0 263.05 21.4 A 34.042 34.042 0 0 0 256.687 19.918 A 46.559 46.559 0 0 0 250.3 19.5 Q 241.6 19.5 235 22.9 Q 228.4 26.3 224.75 32.4 A 25.567 25.567 0 0 0 221.422 42.016 A 33.064 33.064 0 0 0 221.1 46.7 A 44.239 44.239 0 0 0 221.654 53.887 Q 222.389 58.35 224.1 62 A 22.568 22.568 0 0 0 229.221 69.108 A 21.395 21.395 0 0 0 232.85 71.8 Q 238.6 75.2 246.7 75.2 A 14.513 14.513 0 0 1 247.749 75.235 Q 248.754 75.308 249.418 75.533 A 3.576 3.576 0 0 1 249.6 75.6 Q 250.6 76 251.05 77 A 4.004 4.004 0 0 1 251.287 77.723 Q 251.469 78.493 251.496 79.609 A 16.473 16.473 0 0 1 251.5 80 A 9.164 9.164 0 0 1 251.435 81.131 Q 251.366 81.688 251.222 82.145 A 3.542 3.542 0 0 1 250.8 83.05 Q 250.1 84.1 249 84.4 A 8.503 8.503 0 0 1 247.47 84.665 A 10.425 10.425 0 0 1 246.6 84.7 Q 235.9 84.7 228 80.1 Q 220.1 75.5 215.8 67.1 A 38.4 38.4 0 0 1 212.156 55.786 A 51.427 51.427 0 0 1 211.5 47.4 Q 211.5 39.1 214.3 32.3 Q 217.1 25.5 222.15 20.5 A 34.529 34.529 0 0 1 233.982 12.885 A 39.41 39.41 0 0 1 234.2 12.8 A 40.685 40.685 0 0 1 245.806 10.239 A 48.478 48.478 0 0 1 249.5 10.1 Q 258.8 10.1 266.15 12.7 A 36.438 36.438 0 0 1 274.757 17.039 A 32.118 32.118 0 0 1 278.65 20.2 Q 283.8 25.1 286.45 32 A 39.438 39.438 0 0 1 288.727 41.289 A 50.142 50.142 0 0 1 289.1 47.5 A 42.735 42.735 0 0 1 288.666 53.736 A 31.886 31.886 0 0 1 287.25 59.6 A 29.465 29.465 0 0 1 284.726 65.056 A 24.23 24.23 0 0 1 282.15 68.6 A 23.591 23.591 0 0 1 277.658 72.602 A 20.645 20.645 0 0 1 274.85 74.2 Q 270.8 76.1 266.5 76.1 A 16.902 16.902 0 0 1 262.338 75.615 A 11.953 11.953 0 0 1 256.9 72.65 Q 253.49 69.382 253.49 64.094 A 16.933 16.933 0 0 1 253.5 63.5 Q 253.6 62.6 253.7 61.6 Q 253.8 60.6 253.8 59.7 A 7.801 7.801 0 0 1 252.759 60.763 A 10.483 10.483 0 0 1 251.7 61.55 A 10.134 10.134 0 0 1 249.949 62.456 A 12.949 12.949 0 0 1 248.65 62.9 A 12.103 12.103 0 0 1 246.931 63.251 Q 246.092 63.363 245.144 63.391 A 21.79 21.79 0 0 1 244.5 63.4 Q 241.7 63.4 239.15 62.25 Q 236.6 61.1 234.6 59 A 14.83 14.83 0 0 1 231.509 54.072 A 16.875 16.875 0 0 1 231.5 54.05 A 15.291 15.291 0 0 1 230.498 48.912 Q 230.492 48.681 230.492 48.447 A 18.055 18.055 0 0 1 230.5 47.9 L 230.5 46.65 A 4.907 4.907 0 0 1 230.509 46.346 Q 230.527 46.047 230.585 45.847 A 1.237 1.237 0 0 1 230.6 45.8 Q 230.9 42 232.55 38.75 A 21.617 21.617 0 0 1 236.05 33.713 A 20.2 20.2 0 0 1 236.65 33.1 A 18.398 18.398 0 0 1 241.14 29.833 A 17.211 17.211 0 0 1 242.05 29.4 Q 245 28.1 248.2 28.1 Q 250.758 28.1 252.687 28.818 A 9.377 9.377 0 0 1 252.9 28.9 A 12.548 12.548 0 0 1 254.96 29.942 A 10.209 10.209 0 0 1 256.3 30.95 A 10.301 10.301 0 0 1 257.306 31.974 Q 257.794 32.551 258.118 33.139 A 5.734 5.734 0 0 1 258.3 33.5 Z M 0 65.9 L 0 28.5 Q 0 26.9 0.3 25.6 A 3.143 3.143 0 0 1 1.413 23.846 A 4.383 4.383 0 0 1 1.9 23.5 A 4.267 4.267 0 0 1 2.908 23.063 Q 3.933 22.755 5.45 22.708 A 18.055 18.055 0 0 1 6 22.7 A 11.15 11.15 0 0 1 7.509 22.795 Q 9.248 23.033 10.215 23.87 A 3.402 3.402 0 0 1 10.25 23.9 Q 11.347 24.875 11.553 26.774 A 8.608 8.608 0 0 1 11.6 27.7 L 10.7 30.5 A 6.572 6.572 0 0 1 11.173 29.647 Q 11.65 28.913 12.4 28.1 Q 13.6 26.8 15.35 25.5 A 15.189 15.189 0 0 1 18.757 23.608 A 17.229 17.229 0 0 1 19.3 23.4 Q 21.5 22.6 23.9 22.6 A 17.233 17.233 0 0 1 27.787 23.024 A 14.752 14.752 0 0 1 29.95 23.7 Q 32.7 24.8 34.85 26.9 A 19.455 19.455 0 0 1 37.546 30.213 A 23.681 23.681 0 0 1 38.6 32 Q 40.3 29.4 42.4 27.25 Q 44.5 25.1 47.3 23.85 A 14.356 14.356 0 0 1 51.481 22.722 A 17.92 17.92 0 0 1 53.6 22.6 A 19.24 19.24 0 0 1 58.165 23.116 A 14.439 14.439 0 0 1 63.35 25.5 A 16.509 16.509 0 0 1 67.883 30.646 A 21.859 21.859 0 0 1 69.35 33.75 A 29.235 29.235 0 0 1 70.855 39.414 Q 71.298 42.071 71.381 45.088 A 51.321 51.321 0 0 1 71.4 46.5 L 71.4 65.9 A 14.166 14.166 0 0 1 71.313 67.507 A 10.501 10.501 0 0 1 71.05 68.95 A 3.522 3.522 0 0 1 69.565 71.024 A 4.546 4.546 0 0 1 69.45 71.1 Q 68.2 71.9 65.4 71.9 Q 62.942 71.9 61.64 71.245 A 3.471 3.471 0 0 1 61.3 71.05 A 4.08 4.08 0 0 1 60.388 70.252 A 3.268 3.268 0 0 1 59.7 68.85 Q 59.402 67.511 59.4 65.827 A 19.127 19.127 0 0 1 59.4 65.8 L 59.4 46.4 A 25.624 25.624 0 0 0 59.24 43.456 Q 59.065 41.946 58.699 40.648 A 14.436 14.436 0 0 0 58.5 40 A 11.427 11.427 0 0 0 57.629 38.004 Q 56.918 36.742 55.931 35.87 A 7.271 7.271 0 0 0 55.85 35.8 A 6.075 6.075 0 0 0 53.101 34.477 A 8.7 8.7 0 0 0 51.3 34.3 A 10.387 10.387 0 0 0 48.715 34.608 A 8.18 8.18 0 0 0 46.15 35.75 A 9.009 9.009 0 0 0 43.482 38.591 A 11.551 11.551 0 0 0 42.8 39.9 A 13.004 13.004 0 0 0 41.939 42.695 Q 41.6 44.428 41.6 46.5 L 41.6 66 A 10.144 10.144 0 0 1 41.385 68.124 A 8.758 8.758 0 0 1 41.1 69.15 A 3.793 3.793 0 0 1 39.284 71.278 A 4.927 4.927 0 0 1 39.15 71.35 Q 37.815 72.041 35.419 71.926 A 16.179 16.179 0 0 1 35 71.9 A 11.688 11.688 0 0 1 33.701 71.781 Q 32.375 71.577 31.577 71.061 A 3.091 3.091 0 0 1 31.35 70.9 A 3.898 3.898 0 0 1 30.403 69.852 A 3.544 3.544 0 0 1 29.95 68.65 A 15.184 15.184 0 0 1 29.712 66.449 A 17.426 17.426 0 0 1 29.7 65.8 L 29.7 46.4 Q 29.7 42.7 28.8 39.95 A 11.415 11.415 0 0 0 27.967 38 Q 27.216 36.634 26.15 35.75 Q 24.492 34.377 21.803 34.304 A 11.243 11.243 0 0 0 21.5 34.3 A 9.974 9.974 0 0 0 18.927 34.617 A 7.799 7.799 0 0 0 16.25 35.9 Q 14.1 37.5 13 40.2 A 14.579 14.579 0 0 0 12.089 43.639 A 19.408 19.408 0 0 0 11.9 46.4 L 11.9 66 A 12.967 12.967 0 0 1 11.736 68.094 A 11.157 11.157 0 0 1 11.55 69 A 3.369 3.369 0 0 1 9.989 71.126 A 4.132 4.132 0 0 1 9.95 71.15 A 3.953 3.953 0 0 1 9.062 71.529 Q 8.119 71.815 6.689 71.881 A 19.495 19.495 0 0 1 5.8 71.9 A 14.478 14.478 0 0 1 4.414 71.839 Q 3.034 71.705 2.177 71.284 A 3.35 3.35 0 0 1 1.85 71.1 A 3.562 3.562 0 0 1 0.814 70.116 A 3.379 3.379 0 0 1 0.3 68.9 A 13.574 13.574 0 0 1 0.029 66.881 A 16.11 16.11 0 0 1 0 65.9 Z M 297.2 65.9 L 297.2 28.5 Q 297.2 26.9 297.5 25.6 A 3.143 3.143 0 0 1 298.613 23.846 A 4.383 4.383 0 0 1 299.1 23.5 A 4.267 4.267 0 0 1 300.108 23.063 Q 301.133 22.755 302.65 22.708 A 18.055 18.055 0 0 1 303.2 22.7 A 11.15 11.15 0 0 1 304.709 22.795 Q 306.448 23.033 307.415 23.87 A 3.402 3.402 0 0 1 307.45 23.9 Q 308.547 24.875 308.753 26.774 A 8.608 8.608 0 0 1 308.8 27.7 L 307.9 30.5 A 6.572 6.572 0 0 1 308.373 29.647 Q 308.85 28.913 309.6 28.1 Q 310.8 26.8 312.55 25.5 A 15.189 15.189 0 0 1 315.957 23.608 A 17.229 17.229 0 0 1 316.5 23.4 Q 318.7 22.6 321.1 22.6 A 17.233 17.233 0 0 1 324.987 23.024 A 14.752 14.752 0 0 1 327.15 23.7 Q 329.9 24.8 332.05 26.9 A 19.455 19.455 0 0 1 334.746 30.213 A 23.681 23.681 0 0 1 335.8 32 Q 337.5 29.4 339.6 27.25 Q 341.7 25.1 344.5 23.85 A 14.356 14.356 0 0 1 348.681 22.722 A 17.92 17.92 0 0 1 350.8 22.6 A 19.24 19.24 0 0 1 355.365 23.116 A 14.439 14.439 0 0 1 360.55 25.5 A 16.509 16.509 0 0 1 365.083 30.646 A 21.859 21.859 0 0 1 366.55 33.75 A 29.235 29.235 0 0 1 368.055 39.414 Q 368.498 42.071 368.581 45.088 A 51.321 51.321 0 0 1 368.6 46.5 L 368.6 65.9 A 14.166 14.166 0 0 1 368.513 67.507 A 10.501 10.501 0 0 1 368.25 68.95 A 3.522 3.522 0 0 1 366.765 71.024 A 4.546 4.546 0 0 1 366.65 71.1 Q 365.4 71.9 362.6 71.9 Q 360.142 71.9 358.84 71.245 A 3.471 3.471 0 0 1 358.5 71.05 A 4.08 4.08 0 0 1 357.588 70.252 A 3.268 3.268 0 0 1 356.9 68.85 Q 356.602 67.511 356.6 65.827 A 19.127 19.127 0 0 1 356.6 65.8 L 356.6 46.4 A 25.624 25.624 0 0 0 356.44 43.456 Q 356.265 41.946 355.899 40.648 A 14.436 14.436 0 0 0 355.7 40 A 11.427 11.427 0 0 0 354.829 38.004 Q 354.118 36.742 353.131 35.87 A 7.271 7.271 0 0 0 353.05 35.8 A 6.075 6.075 0 0 0 350.301 34.477 A 8.7 8.7 0 0 0 348.5 34.3 A 10.387 10.387 0 0 0 345.915 34.608 A 8.18 8.18 0 0 0 343.35 35.75 A 9.009 9.009 0 0 0 340.682 38.591 A 11.551 11.551 0 0 0 340 39.9 A 13.004 13.004 0 0 0 339.139 42.695 Q 338.8 44.428 338.8 46.5 L 338.8 66 A 10.144 10.144 0 0 1 338.585 68.124 A 8.758 8.758 0 0 1 338.3 69.15 A 3.793 3.793 0 0 1 336.484 71.278 A 4.927 4.927 0 0 1 336.35 71.35 Q 335.015 72.041 332.619 71.926 A 16.179 16.179 0 0 1 332.2 71.9 A 11.688 11.688 0 0 1 330.901 71.781 Q 329.575 71.577 328.777 71.061 A 3.091 3.091 0 0 1 328.55 70.9 A 3.898 3.898 0 0 1 327.603 69.852 A 3.544 3.544 0 0 1 327.15 68.65 A 15.184 15.184 0 0 1 326.912 66.449 A 17.426 17.426 0 0 1 326.9 65.8 L 326.9 46.4 Q 326.9 42.7 326 39.95 A 11.415 11.415 0 0 0 325.167 38 Q 324.416 36.634 323.35 35.75 Q 321.692 34.377 319.003 34.304 A 11.243 11.243 0 0 0 318.7 34.3 A 9.974 9.974 0 0 0 316.127 34.617 A 7.799 7.799 0 0 0 313.45 35.9 Q 311.3 37.5 310.2 40.2 A 14.579 14.579 0 0 0 309.289 43.639 A 19.408 19.408 0 0 0 309.1 46.4 L 309.1 66 A 12.967 12.967 0 0 1 308.936 68.094 A 11.157 11.157 0 0 1 308.75 69 A 3.369 3.369 0 0 1 307.189 71.126 A 4.132 4.132 0 0 1 307.15 71.15 A 3.953 3.953 0 0 1 306.262 71.529 Q 305.319 71.815 303.889 71.881 A 19.495 19.495 0 0 1 303 71.9 A 14.478 14.478 0 0 1 301.614 71.839 Q 300.234 71.705 299.377 71.284 A 3.35 3.35 0 0 1 299.05 71.1 A 3.562 3.562 0 0 1 298.014 70.116 A 3.379 3.379 0 0 1 297.5 68.9 A 13.574 13.574 0 0 1 297.229 66.881 A 16.11 16.11 0 0 1 297.2 65.9 Z M 104.5 54.3 L 104.5 6.1 A 14.166 14.166 0 0 1 104.587 4.494 A 10.501 10.501 0 0 1 104.85 3.05 A 3.685 3.685 0 0 1 106.224 1.014 A 4.766 4.766 0 0 1 106.45 0.85 A 3.879 3.879 0 0 1 107.437 0.384 Q 108.619 0 110.5 0 A 15.61 15.61 0 0 1 111.878 0.057 Q 113.632 0.213 114.55 0.8 Q 115.8 1.6 116.15 2.95 A 10.591 10.591 0 0 1 116.423 4.483 A 14.294 14.294 0 0 1 116.5 6 L 116.5 53.8 A 23.877 23.877 0 0 0 116.532 55.082 Q 116.59 56.149 116.75 56.95 A 5.489 5.489 0 0 0 117.013 57.867 Q 117.259 58.499 117.65 58.95 A 3.348 3.348 0 0 0 119.031 59.895 A 4.164 4.164 0 0 0 119.35 60 A 7.103 7.103 0 0 0 120.316 60.2 Q 121.033 60.3 121.9 60.3 Q 123.2 60.3 124.25 60.6 Q 125.288 60.897 125.935 62.073 A 4.738 4.738 0 0 1 125.95 62.1 A 4.054 4.054 0 0 1 126.279 62.945 Q 126.528 63.841 126.584 65.181 A 19.598 19.598 0 0 1 126.6 66 A 19.213 19.213 0 0 1 126.551 67.419 Q 126.422 69.156 125.95 70.1 Q 125.3 71.4 124.2 71.7 Q 123.1 72 121.9 72 Q 118.59 72 115.961 71.6 A 27.285 27.285 0 0 1 115.35 71.5 Q 112.5 71 110.45 69.8 Q 108.4 68.6 107.1 66.55 Q 105.8 64.5 105.15 61.5 Q 104.617 59.042 104.521 55.778 A 50.192 50.192 0 0 1 104.5 54.3 Z M 133.6 54.3 L 133.6 6.1 A 14.166 14.166 0 0 1 133.687 4.494 A 10.501 10.501 0 0 1 133.95 3.05 A 3.685 3.685 0 0 1 135.324 1.014 A 4.766 4.766 0 0 1 135.55 0.85 A 3.879 3.879 0 0 1 136.537 0.384 Q 137.719 0 139.6 0 A 15.61 15.61 0 0 1 140.978 0.057 Q 142.732 0.213 143.65 0.8 Q 144.9 1.6 145.25 2.95 A 10.591 10.591 0 0 1 145.523 4.483 A 14.294 14.294 0 0 1 145.6 6 L 145.6 53.8 A 23.877 23.877 0 0 0 145.632 55.082 Q 145.69 56.149 145.85 56.95 A 5.489 5.489 0 0 0 146.113 57.867 Q 146.359 58.499 146.75 58.95 A 3.348 3.348 0 0 0 148.131 59.895 A 4.164 4.164 0 0 0 148.45 60 A 7.103 7.103 0 0 0 149.416 60.2 Q 150.133 60.3 151 60.3 Q 152.3 60.3 153.35 60.6 Q 154.388 60.897 155.035 62.073 A 4.738 4.738 0 0 1 155.05 62.1 A 4.054 4.054 0 0 1 155.379 62.945 Q 155.628 63.841 155.684 65.181 A 19.598 19.598 0 0 1 155.7 66 A 19.213 19.213 0 0 1 155.651 67.419 Q 155.522 69.156 155.05 70.1 Q 154.4 71.4 153.3 71.7 Q 152.2 72 151 72 Q 147.69 72 145.061 71.6 A 27.285 27.285 0 0 1 144.45 71.5 Q 141.6 71 139.55 69.8 Q 137.5 68.6 136.2 66.55 Q 134.9 64.5 134.25 61.5 Q 133.717 59.042 133.621 55.778 A 50.192 50.192 0 0 1 133.6 54.3 Z M 401.7 54.3 L 401.7 6.1 A 14.166 14.166 0 0 1 401.787 4.494 A 10.501 10.501 0 0 1 402.05 3.05 A 3.685 3.685 0 0 1 403.424 1.014 A 4.766 4.766 0 0 1 403.65 0.85 A 3.879 3.879 0 0 1 404.637 0.384 Q 405.819 0 407.7 0 A 15.61 15.61 0 0 1 409.078 0.057 Q 410.832 0.213 411.75 0.8 Q 413 1.6 413.35 2.95 A 10.591 10.591 0 0 1 413.623 4.483 A 14.294 14.294 0 0 1 413.7 6 L 413.7 53.8 A 23.877 23.877 0 0 0 413.732 55.082 Q 413.79 56.149 413.95 56.95 A 5.489 5.489 0 0 0 414.213 57.867 Q 414.459 58.499 414.85 58.95 A 3.348 3.348 0 0 0 416.231 59.895 A 4.164 4.164 0 0 0 416.55 60 A 7.103 7.103 0 0 0 417.516 60.2 Q 418.233 60.3 419.1 60.3 Q 420.4 60.3 421.45 60.6 Q 422.488 60.897 423.135 62.073 A 4.738 4.738 0 0 1 423.15 62.1 A 4.054 4.054 0 0 1 423.479 62.945 Q 423.728 63.841 423.784 65.181 A 19.598 19.598 0 0 1 423.8 66 A 19.213 19.213 0 0 1 423.751 67.419 Q 423.622 69.156 423.15 70.1 Q 422.5 71.4 421.4 71.7 Q 420.3 72 419.1 72 Q 415.79 72 413.161 71.6 A 27.285 27.285 0 0 1 412.55 71.5 Q 409.7 71 407.65 69.8 Q 405.6 68.6 404.3 66.55 Q 403 64.5 402.35 61.5 Q 401.817 59.042 401.721 55.778 A 50.192 50.192 0 0 1 401.7 54.3 Z M 430.8 54.3 L 430.8 6.1 A 14.166 14.166 0 0 1 430.887 4.494 A 10.501 10.501 0 0 1 431.15 3.05 A 3.685 3.685 0 0 1 432.524 1.014 A 4.766 4.766 0 0 1 432.75 0.85 A 3.879 3.879 0 0 1 433.737 0.384 Q 434.919 0 436.8 0 A 15.61 15.61 0 0 1 438.178 0.057 Q 439.932 0.213 440.85 0.8 Q 442.1 1.6 442.45 2.95 A 10.591 10.591 0 0 1 442.723 4.483 A 14.294 14.294 0 0 1 442.8 6 L 442.8 53.8 A 23.877 23.877 0 0 0 442.832 55.082 Q 442.89 56.149 443.05 56.95 A 5.489 5.489 0 0 0 443.313 57.867 Q 443.559 58.499 443.95 58.95 A 3.348 3.348 0 0 0 445.331 59.895 A 4.164 4.164 0 0 0 445.65 60 A 7.103 7.103 0 0 0 446.616 60.2 Q 447.333 60.3 448.2 60.3 Q 449.5 60.3 450.55 60.6 Q 451.588 60.897 452.235 62.073 A 4.738 4.738 0 0 1 452.25 62.1 A 4.054 4.054 0 0 1 452.579 62.945 Q 452.828 63.841 452.884 65.181 A 19.598 19.598 0 0 1 452.9 66 A 19.213 19.213 0 0 1 452.851 67.419 Q 452.722 69.156 452.25 70.1 Q 451.6 71.4 450.5 71.7 Q 449.4 72 448.2 72 Q 444.89 72 442.261 71.6 A 27.285 27.285 0 0 1 441.65 71.5 Q 438.8 71 436.75 69.8 Q 434.7 68.6 433.4 66.55 Q 432.1 64.5 431.45 61.5 Q 430.917 59.042 430.821 55.778 A 50.192 50.192 0 0 1 430.8 54.3 Z M 532.2 54.3 L 532.2 6.1 A 14.166 14.166 0 0 1 532.287 4.494 A 10.501 10.501 0 0 1 532.55 3.05 A 3.685 3.685 0 0 1 533.924 1.014 A 4.766 4.766 0 0 1 534.15 0.85 A 3.879 3.879 0 0 1 535.137 0.384 Q 536.319 0 538.2 0 A 15.61 15.61 0 0 1 539.578 0.057 Q 541.332 0.213 542.25 0.8 Q 543.5 1.6 543.85 2.95 A 10.591 10.591 0 0 1 544.123 4.483 A 14.294 14.294 0 0 1 544.2 6 L 544.2 53.8 A 23.877 23.877 0 0 0 544.232 55.082 Q 544.29 56.149 544.45 56.95 A 5.489 5.489 0 0 0 544.713 57.867 Q 544.959 58.499 545.35 58.95 A 3.348 3.348 0 0 0 546.731 59.895 A 4.164 4.164 0 0 0 547.05 60 A 7.103 7.103 0 0 0 548.016 60.2 Q 548.733 60.3 549.6 60.3 Q 550.9 60.3 551.95 60.6 Q 552.988 60.897 553.635 62.073 A 4.738 4.738 0 0 1 553.65 62.1 A 4.054 4.054 0 0 1 553.979 62.945 Q 554.228 63.841 554.284 65.181 A 19.598 19.598 0 0 1 554.3 66 A 19.213 19.213 0 0 1 554.251 67.419 Q 554.122 69.156 553.65 70.1 Q 553 71.4 551.9 71.7 Q 550.8 72 549.6 72 Q 546.29 72 543.661 71.6 A 27.285 27.285 0 0 1 543.05 71.5 Q 540.2 71 538.15 69.8 Q 536.1 68.6 534.8 66.55 Q 533.5 64.5 532.85 61.5 Q 532.317 59.042 532.221 55.778 A 50.192 50.192 0 0 1 532.2 54.3 Z M 617.2 54.3 L 617.2 6.1 A 14.166 14.166 0 0 1 617.287 4.494 A 10.501 10.501 0 0 1 617.55 3.05 A 3.685 3.685 0 0 1 618.924 1.014 A 4.766 4.766 0 0 1 619.15 0.85 A 3.879 3.879 0 0 1 620.137 0.384 Q 621.319 0 623.2 0 A 15.61 15.61 0 0 1 624.578 0.057 Q 626.332 0.213 627.25 0.8 Q 628.5 1.6 628.85 2.95 A 10.591 10.591 0 0 1 629.123 4.483 A 14.294 14.294 0 0 1 629.2 6 L 629.2 53.8 A 23.877 23.877 0 0 0 629.232 55.082 Q 629.29 56.149 629.45 56.95 A 5.489 5.489 0 0 0 629.713 57.867 Q 629.959 58.499 630.35 58.95 A 3.348 3.348 0 0 0 631.731 59.895 A 4.164 4.164 0 0 0 632.05 60 A 7.103 7.103 0 0 0 633.016 60.2 Q 633.733 60.3 634.6 60.3 Q 635.9 60.3 636.95 60.6 Q 637.988 60.897 638.635 62.073 A 4.738 4.738 0 0 1 638.65 62.1 A 4.054 4.054 0 0 1 638.979 62.945 Q 639.228 63.841 639.284 65.181 A 19.598 19.598 0 0 1 639.3 66 A 19.213 19.213 0 0 1 639.251 67.419 Q 639.122 69.156 638.65 70.1 Q 638 71.4 636.9 71.7 Q 635.8 72 634.6 72 Q 631.29 72 628.661 71.6 A 27.285 27.285 0 0 1 628.05 71.5 Q 625.2 71 623.15 69.8 Q 621.1 68.6 619.8 66.55 Q 618.5 64.5 617.85 61.5 Q 617.317 59.042 617.221 55.778 A 50.192 50.192 0 0 1 617.2 54.3 Z M 584.5 72.6 Q 579.7 72.6 575.15 70.75 Q 570.6 68.9 566.95 65.5 Q 563.3 62.1 561.15 57.5 A 23.134 23.134 0 0 1 559.038 48.845 A 27.264 27.264 0 0 1 559 47.4 A 24.724 24.724 0 0 1 560.636 38.387 A 23.723 23.723 0 0 1 561 37.5 Q 563 32.9 566.5 29.4 Q 570 25.9 574.55 23.95 Q 579.1 22 584.3 22 A 25.172 25.172 0 0 1 593.88 23.807 A 24.019 24.019 0 0 1 597 25.35 Q 602.7 28.7 606.1 34.4 A 24.241 24.241 0 0 1 609.447 45.524 A 29.363 29.363 0 0 1 609.5 47.3 A 26.75 26.75 0 0 1 608.76 53.699 A 22.778 22.778 0 0 1 607.4 57.65 Q 605.3 62.3 601.7 65.65 Q 598.1 69 593.65 70.8 Q 589.2 72.6 584.5 72.6 Z M 171.5 24.9 L 203.2 61.6 Q 204.861 63.359 205.472 64.736 A 5.535 5.535 0 0 1 205.5 64.8 A 4.191 4.191 0 0 1 205.754 65.593 Q 205.827 65.943 205.827 66.283 A 3.117 3.117 0 0 1 205.6 67.45 A 4.436 4.436 0 0 1 205.158 68.264 Q 204.514 69.225 203.2 70.4 A 16.939 16.939 0 0 1 202.206 71.217 Q 201.234 71.951 200.436 72.278 A 4.507 4.507 0 0 1 200.25 72.35 A 3.034 3.034 0 0 1 199.355 72.531 Q 198.553 72.567 197.75 72.15 A 7.187 7.187 0 0 1 196.916 71.633 Q 195.938 70.938 194.7 69.7 L 163 33 A 19.862 19.862 0 0 1 162.098 31.914 Q 161.213 30.763 160.8 29.8 A 3.724 3.724 0 0 1 160.543 28.933 Q 160.398 28.047 160.744 27.182 A 3.826 3.826 0 0 1 160.8 27.05 A 5.675 5.675 0 0 1 161.354 26.092 Q 162.019 25.15 163.2 24.1 Q 164.774 22.711 165.962 22.265 A 4.038 4.038 0 0 1 166.15 22.2 A 3.11 3.11 0 0 1 167.102 22.048 Q 167.677 22.048 168.251 22.269 A 3.94 3.94 0 0 1 168.65 22.45 Q 169.837 23.067 171.34 24.722 A 22.308 22.308 0 0 1 171.5 24.9 Z M 468.7 24.9 L 500.4 61.6 Q 502.061 63.359 502.672 64.736 A 5.535 5.535 0 0 1 502.7 64.8 A 4.191 4.191 0 0 1 502.954 65.593 Q 503.027 65.943 503.027 66.283 A 3.117 3.117 0 0 1 502.8 67.45 A 4.436 4.436 0 0 1 502.358 68.264 Q 501.714 69.225 500.4 70.4 A 16.939 16.939 0 0 1 499.406 71.217 Q 498.434 71.951 497.636 72.278 A 4.507 4.507 0 0 1 497.45 72.35 A 3.034 3.034 0 0 1 496.555 72.531 Q 495.753 72.567 494.95 72.15 A 7.187 7.187 0 0 1 494.116 71.633 Q 493.138 70.938 491.9 69.7 L 460.2 33 A 19.862 19.862 0 0 1 459.298 31.914 Q 458.413 30.763 458 29.8 A 3.724 3.724 0 0 1 457.743 28.933 Q 457.598 28.047 457.944 27.182 A 3.826 3.826 0 0 1 458 27.05 A 5.675 5.675 0 0 1 458.554 26.092 Q 459.219 25.15 460.4 24.1 Q 461.974 22.711 463.162 22.265 A 4.038 4.038 0 0 1 463.35 22.2 A 3.11 3.11 0 0 1 464.302 22.048 Q 464.877 22.048 465.451 22.269 A 3.94 3.94 0 0 1 465.85 22.45 Q 467.037 23.067 468.54 24.722 A 22.308 22.308 0 0 1 468.7 24.9 Z M 203.3 33 L 171.6 69.7 Q 169.9 71.5 168.6 72.15 Q 167.318 72.791 166.084 72.313 A 3.317 3.317 0 0 1 166.05 72.3 A 7.186 7.186 0 0 1 165.143 71.853 Q 164.219 71.322 163.1 70.4 Q 161.4 68.7 160.8 67.45 Q 160.312 66.434 160.651 65.318 A 3.967 3.967 0 0 1 160.85 64.8 Q 161.287 63.859 162.152 62.738 A 21.47 21.47 0 0 1 163.1 61.6 L 194.8 24.9 A 19.839 19.839 0 0 1 195.925 23.772 Q 197.687 22.153 198.95 22 Q 200.362 21.829 202.398 23.49 A 15.706 15.706 0 0 1 203.1 24.1 A 17.372 17.372 0 0 1 204.062 25.025 Q 205.155 26.166 205.55 27.1 A 3.399 3.399 0 0 1 205.815 28.165 Q 205.866 28.814 205.65 29.476 A 4.058 4.058 0 0 1 205.55 29.75 A 6.679 6.679 0 0 1 205.094 30.648 Q 204.557 31.547 203.618 32.638 A 24.781 24.781 0 0 1 203.3 33 Z M 500.5 33 L 468.8 69.7 Q 467.1 71.5 465.8 72.15 Q 464.518 72.791 463.284 72.313 A 3.317 3.317 0 0 1 463.25 72.3 A 7.186 7.186 0 0 1 462.343 71.853 Q 461.419 71.322 460.3 70.4 Q 458.6 68.7 458 67.45 Q 457.512 66.434 457.851 65.318 A 3.967 3.967 0 0 1 458.05 64.8 Q 458.487 63.859 459.352 62.738 A 21.47 21.47 0 0 1 460.3 61.6 L 492 24.9 A 19.839 19.839 0 0 1 493.125 23.772 Q 494.887 22.153 496.15 22 Q 497.562 21.829 499.598 23.49 A 15.706 15.706 0 0 1 500.3 24.1 A 17.372 17.372 0 0 1 501.262 25.025 Q 502.355 26.166 502.75 27.1 A 3.399 3.399 0 0 1 503.015 28.165 Q 503.066 28.814 502.85 29.476 A 4.058 4.058 0 0 1 502.75 29.75 A 6.679 6.679 0 0 1 502.294 30.648 Q 501.757 31.547 500.818 32.638 A 24.781 24.781 0 0 1 500.5 33 Z M 81.9 65.9 L 81.9 28.7 Q 81.9 27.1 82.25 25.75 A 3.522 3.522 0 0 1 83.735 23.676 A 4.546 4.546 0 0 1 83.85 23.6 Q 85.1 22.8 87.9 22.8 A 15.61 15.61 0 0 1 89.278 22.857 Q 91.032 23.013 91.95 23.6 A 3.562 3.562 0 0 1 92.987 24.585 A 3.379 3.379 0 0 1 93.5 25.8 A 13.24 13.24 0 0 1 93.743 27.47 A 17.163 17.163 0 0 1 93.8 28.9 L 93.8 66 Q 93.8 67.7 93.5 69.05 A 3.314 3.314 0 0 1 92.103 71.098 A 4.377 4.377 0 0 1 91.95 71.2 A 3.884 3.884 0 0 1 91.015 71.62 Q 89.799 72 87.8 72 A 13.704 13.704 0 0 1 86.392 71.933 Q 84.734 71.761 83.8 71.15 A 4.08 4.08 0 0 1 82.888 70.352 A 3.268 3.268 0 0 1 82.2 68.95 Q 81.902 67.611 81.9 65.927 A 19.127 19.127 0 0 1 81.9 65.9 Z M 379.1 65.9 L 379.1 28.7 Q 379.1 27.1 379.45 25.75 A 3.522 3.522 0 0 1 380.935 23.676 A 4.546 4.546 0 0 1 381.05 23.6 Q 382.3 22.8 385.1 22.8 A 15.61 15.61 0 0 1 386.478 22.857 Q 388.232 23.013 389.15 23.6 A 3.562 3.562 0 0 1 390.187 24.585 A 3.379 3.379 0 0 1 390.7 25.8 A 13.24 13.24 0 0 1 390.943 27.47 A 17.163 17.163 0 0 1 391 28.9 L 391 66 Q 391 67.7 390.7 69.05 A 3.314 3.314 0 0 1 389.303 71.098 A 4.377 4.377 0 0 1 389.15 71.2 A 3.884 3.884 0 0 1 388.215 71.62 Q 386.999 72 385 72 A 13.704 13.704 0 0 1 383.592 71.933 Q 381.934 71.761 381 71.15 A 4.08 4.08 0 0 1 380.088 70.352 A 3.268 3.268 0 0 1 379.4 68.95 Q 379.102 67.611 379.1 65.927 A 19.127 19.127 0 0 1 379.1 65.9 Z M 584.3 60.8 Q 587.6 60.8 590.65 59.15 A 13.323 13.323 0 0 0 595.527 54.592 A 15.621 15.621 0 0 0 595.65 54.4 A 12.627 12.627 0 0 0 597.446 49.376 A 16.293 16.293 0 0 0 597.6 47.1 A 14.784 14.784 0 0 0 597.106 43.21 A 12.396 12.396 0 0 0 595.85 40.2 Q 594.1 37.2 591.1 35.5 A 13.089 13.089 0 0 0 586.101 33.907 A 16.473 16.473 0 0 0 584.2 33.8 A 13.461 13.461 0 0 0 579.393 34.646 A 12.624 12.624 0 0 0 577.5 35.55 Q 574.5 37.3 572.75 40.35 A 13.307 13.307 0 0 0 571.021 46.378 A 15.992 15.992 0 0 0 571 47.2 A 15.576 15.576 0 0 0 571.411 50.856 A 12.111 12.111 0 0 0 572.9 54.45 Q 574.8 57.5 577.85 59.15 Q 580.9 60.8 584.3 60.8 Z M 255.2 45.9 L 255.2 45.2 Q 255.2 43.527 254.811 42.242 A 7.268 7.268 0 0 0 254.75 42.05 A 6.381 6.381 0 0 0 253.966 40.45 A 5.711 5.711 0 0 0 253.4 39.75 Q 252.5 38.8 251.25 38.3 Q 250 37.8 248.5 37.8 A 8.242 8.242 0 0 0 245.942 38.192 A 7.729 7.729 0 0 0 245.5 38.35 Q 244.1 38.9 243 39.95 A 8.539 8.539 0 0 0 241.244 42.36 A 9.654 9.654 0 0 0 241.2 42.45 A 10.658 10.658 0 0 0 240.539 44.224 A 13.989 13.989 0 0 0 240.2 45.8 L 240.2 46.5 A 9.599 9.599 0 0 0 240.363 48.31 A 7.045 7.045 0 0 0 241.05 50.3 Q 241.9 51.9 243.45 52.8 A 6.672 6.672 0 0 0 246.147 53.657 A 8.285 8.285 0 0 0 247 53.7 Q 248.5 53.7 249.9 53.15 Q 251.3 52.6 252.4 51.55 A 9.257 9.257 0 0 0 254.082 49.362 A 10.571 10.571 0 0 0 254.25 49.05 Q 255 47.6 255.2 45.9 Z M 516.5 72 Q 512.8 72 511.3 70.55 A 4.04 4.04 0 0 1 510.393 69.164 Q 509.881 67.924 509.811 66.02 A 16.866 16.866 0 0 1 509.8 65.4 A 16.81 16.81 0 0 1 509.864 63.887 Q 510.003 62.347 510.45 61.35 Q 511.1 59.9 512.6 59.2 A 6.462 6.462 0 0 1 513.866 58.774 Q 515.038 58.5 516.6 58.5 Q 520.3 58.5 521.8 60 A 4.163 4.163 0 0 1 522.684 61.375 Q 523.208 62.643 523.286 64.594 A 17.636 17.636 0 0 1 523.3 65.3 A 15.728 15.728 0 0 1 523.23 66.833 Q 523.156 67.585 523.004 68.218 A 6.595 6.595 0 0 1 522.65 69.3 Q 522 70.8 520.55 71.4 Q 519.13 71.988 516.608 72 A 22.214 22.214 0 0 1 516.5 72 Z M 83.55 12.25 A 3.65 3.65 0 0 0 83.903 12.445 Q 85.255 13.1 87.8 13.1 A 20.759 20.759 0 0 0 88.769 13.079 Q 91.113 12.969 92.2 12.3 Q 93.5 11.5 93.9 10 A 11.306 11.306 0 0 0 94.093 9.141 A 12.865 12.865 0 0 0 94.3 6.8 Q 94.3 4.9 93.9 3.45 A 4.091 4.091 0 0 0 93.396 2.315 A 4.332 4.332 0 0 0 92.2 1.1 A 3.376 3.376 0 0 0 91.742 0.836 Q 90.839 0.401 89.374 0.264 A 15.843 15.843 0 0 0 87.9 0.2 A 18.43 18.43 0 0 0 87.386 0.207 Q 85.801 0.251 84.71 0.575 A 4.716 4.716 0 0 0 83.6 1.05 A 4.774 4.774 0 0 0 83.107 1.392 A 3.465 3.465 0 0 0 81.85 3.3 A 9.6 9.6 0 0 0 81.756 3.715 Q 81.626 4.354 81.562 5.086 A 17.419 17.419 0 0 0 81.5 6.6 A 16.742 16.742 0 0 0 81.558 8.013 A 13.21 13.21 0 0 0 81.85 9.9 A 3.701 3.701 0 0 0 82.398 11.164 A 3.872 3.872 0 0 0 83.55 12.25 Z M 380.75 12.25 A 3.65 3.65 0 0 0 381.103 12.445 Q 382.455 13.1 385 13.1 A 20.759 20.759 0 0 0 385.969 13.079 Q 388.313 12.969 389.4 12.3 Q 390.7 11.5 391.1 10 A 11.306 11.306 0 0 0 391.293 9.141 A 12.865 12.865 0 0 0 391.5 6.8 Q 391.5 4.9 391.1 3.45 A 4.091 4.091 0 0 0 390.596 2.315 A 4.332 4.332 0 0 0 389.4 1.1 A 3.376 3.376 0 0 0 388.942 0.836 Q 388.039 0.401 386.574 0.264 A 15.843 15.843 0 0 0 385.1 0.2 A 18.43 18.43 0 0 0 384.586 0.207 Q 383.001 0.251 381.91 0.575 A 4.716 4.716 0 0 0 380.8 1.05 A 4.774 4.774 0 0 0 380.307 1.392 A 3.465 3.465 0 0 0 379.05 3.3 A 9.6 9.6 0 0 0 378.956 3.715 Q 378.826 4.354 378.762 5.086 A 17.419 17.419 0 0 0 378.7 6.6 A 16.742 16.742 0 0 0 378.758 8.013 A 13.21 13.21 0 0 0 379.05 9.9 A 3.701 3.701 0 0 0 379.598 11.164 A 3.872 3.872 0 0 0 380.75 12.25 Z" vector-effect="non-scaling-stroke"/></g></svg>