<svg width="1091.1" height="97.201" viewBox="0 0 1091.1 97.201" xmlns="http://www.w3.org/2000/svg"><g id="svgGroup" stroke-linecap="round" fill-rule="evenodd" font-size="9pt" stroke="#000" stroke-width="0.25mm" fill="#0095ff" style="stroke:#000;stroke-width:0.25mm;fill:#0095ff"><path d="M 309.9 33.2 L 310.8 26.5 L 318.7 26.5 L 314.6 59.2 A 45.754 45.754 0 0 0 314.442 60.487 Q 314.315 61.667 314.302 62.507 A 12.137 12.137 0 0 0 314.3 62.7 A 10.596 10.596 0 0 0 314.442 64.489 Q 314.609 65.463 314.973 66.248 A 5.359 5.359 0 0 0 315.5 67.15 A 3.739 3.739 0 0 0 317.422 68.506 Q 318.067 68.717 318.858 68.777 A 8.586 8.586 0 0 0 319.5 68.8 A 7.577 7.577 0 0 0 323.68 67.511 Q 324.875 66.738 326 65.5 A 18.274 18.274 0 0 0 328.395 62.124 Q 329.788 59.641 330.8 56.35 A 39.113 39.113 0 0 0 332.178 49.852 Q 332.587 46.683 332.6 43.13 A 63.846 63.846 0 0 0 332.6 42.9 A 34.7 34.7 0 0 0 331.255 33.086 A 29.932 29.932 0 0 0 328.35 26.35 Q 324.1 19.1 316.6 14.95 A 33.127 33.127 0 0 0 304.633 11.129 A 42.121 42.121 0 0 0 299.3 10.8 A 41.009 41.009 0 0 0 290.126 11.786 A 33.17 33.17 0 0 0 282.75 14.4 Q 275.5 18 270.55 24 Q 265.6 30 263.05 37.4 Q 260.5 44.8 260.5 52.5 Q 260.5 64.1 265.15 72.3 Q 269.8 80.5 277.9 84.85 Q 286 89.2 296.1 89.2 Q 303.7 89.2 309.7 87.4 A 74.074 74.074 0 0 0 320.335 83.322 A 68.197 68.197 0 0 0 321 83 L 323.9 90.6 A 45.585 45.585 0 0 1 318.542 93.027 Q 315.852 94.054 312.752 94.913 A 79.256 79.256 0 0 1 311.3 95.3 A 61.096 61.096 0 0 1 299.638 97.081 A 71.106 71.106 0 0 1 295.5 97.2 A 54.867 54.867 0 0 1 282.69 95.761 A 44.94 44.94 0 0 1 272.7 92.1 Q 262.7 87 257 77.05 A 41.603 41.603 0 0 1 252.391 64.48 Q 251.3 59.056 251.3 52.8 Q 251.3 42.8 254.7 33.8 Q 258.1 24.8 264.5 17.8 Q 270.9 10.8 279.85 6.8 A 46.057 46.057 0 0 1 293.826 3.116 A 56.969 56.969 0 0 1 299.9 2.8 A 51.144 51.144 0 0 1 309.937 3.749 A 42.19 42.19 0 0 1 317 5.8 A 39.863 39.863 0 0 1 327.907 12.105 A 37.172 37.172 0 0 1 330.25 14.2 Q 335.8 19.6 338.8 26.8 Q 341.8 34 341.8 42.4 A 52.324 52.324 0 0 1 341.096 51.184 A 39.413 39.413 0 0 1 338.8 59.4 A 33.141 33.141 0 0 1 335.63 65.449 A 24.956 24.956 0 0 1 330.6 71 Q 325.4 75.2 318.7 75.2 A 15.694 15.694 0 0 1 315.217 74.834 A 10.78 10.78 0 0 1 310.6 72.6 A 10.453 10.453 0 0 1 306.986 66.239 A 13.512 13.512 0 0 1 306.9 65.7 A 27.257 27.257 0 0 1 300.273 71.473 A 30.49 30.49 0 0 1 300.15 71.55 A 16.412 16.412 0 0 1 292.128 73.978 A 19.83 19.83 0 0 1 291.2 74 Q 286.2 74 281.85 71.45 Q 277.5 68.9 274.9 64.1 A 20.93 20.93 0 0 1 272.763 57.915 A 29.063 29.063 0 0 1 272.3 52.6 A 32.022 32.022 0 0 1 273.281 44.54 A 27.16 27.16 0 0 1 275.4 38.95 A 26.495 26.495 0 0 1 280.373 32.086 A 24.095 24.095 0 0 1 283.7 29.35 Q 288.9 25.8 295.3 25.8 A 21.489 21.489 0 0 1 299.412 26.174 Q 302.04 26.686 304.15 27.9 A 17.729 17.729 0 0 1 308.023 30.868 A 15.516 15.516 0 0 1 309.9 33.2 Z M 1024.1 74 L 1015.1 74 L 1015.1 22 L 1023.8 22 L 1023.8 30.7 Q 1026.6 26.5 1030.9 23.65 A 17.205 17.205 0 0 1 1040.102 20.809 A 20.858 20.858 0 0 1 1040.7 20.8 A 20.994 20.994 0 0 1 1045.117 21.24 Q 1048.103 21.882 1050.385 23.463 A 13.128 13.128 0 0 1 1050.85 23.8 A 15.751 15.751 0 0 1 1056.298 31.489 A 19.154 19.154 0 0 1 1056.4 31.8 Q 1059.5 27.2 1063.75 24 A 15.669 15.669 0 0 1 1070.541 21.116 A 21.446 21.446 0 0 1 1074.3 20.8 A 21.437 21.437 0 0 1 1079.188 21.322 Q 1082.774 22.162 1085.263 24.351 A 12.994 12.994 0 0 1 1086.95 26.15 A 18.992 18.992 0 0 1 1090.361 33.422 Q 1091.1 36.472 1091.1 40.1 L 1091.1 74 L 1082.1 74 L 1082.1 40.8 A 19.042 19.042 0 0 0 1081.763 37.111 Q 1081.327 34.905 1080.328 33.161 A 10.982 10.982 0 0 0 1079.6 32.05 A 7.974 7.974 0 0 0 1073.787 28.754 A 10.678 10.678 0 0 0 1072.7 28.7 A 11.926 11.926 0 0 0 1065.941 30.827 A 15.996 15.996 0 0 0 1064.35 32.05 Q 1060.5 35.4 1057.6 39.9 L 1057.6 74 L 1048.6 74 L 1048.6 40.8 A 19.042 19.042 0 0 0 1048.263 37.111 Q 1047.827 34.905 1046.828 33.161 A 10.982 10.982 0 0 0 1046.1 32.05 A 7.974 7.974 0 0 0 1040.287 28.754 A 10.678 10.678 0 0 0 1039.2 28.7 A 12.02 12.02 0 0 0 1032.881 30.528 A 16.244 16.244 0 0 0 1030.9 31.95 Q 1027 35.2 1024.1 39.6 L 1024.1 74 Z M 201.9 74 L 192.9 74 L 192.9 0 L 201.9 0 L 201.9 30.3 Q 204.7 26.2 209 23.5 A 17.572 17.572 0 0 1 216.125 20.991 A 22.595 22.595 0 0 1 219.1 20.8 A 23.225 23.225 0 0 1 224.165 21.318 Q 229.259 22.456 232.25 26.1 Q 236.375 31.126 236.588 39.209 A 33.764 33.764 0 0 1 236.6 40.1 L 236.6 74 L 227.6 74 L 227.6 41.1 Q 227.6 35.5 225 32.1 A 8.42 8.42 0 0 0 218.842 28.753 A 11.979 11.979 0 0 0 217.7 28.7 A 13.23 13.23 0 0 0 210.987 30.566 A 17.586 17.586 0 0 0 208.95 31.95 Q 204.8 35.2 201.9 39.6 L 201.9 74 Z M 772.9 74 L 763.9 74 L 763.9 0 L 772.9 0 L 772.9 30.3 Q 775.7 26.2 780 23.5 A 17.572 17.572 0 0 1 787.125 20.991 A 22.595 22.595 0 0 1 790.1 20.8 A 23.225 23.225 0 0 1 795.165 21.318 Q 800.259 22.456 803.25 26.1 Q 807.375 31.126 807.588 39.209 A 33.764 33.764 0 0 1 807.6 40.1 L 807.6 74 L 798.6 74 L 798.6 41.1 Q 798.6 35.5 796 32.1 A 8.42 8.42 0 0 0 789.842 28.753 A 11.979 11.979 0 0 0 788.7 28.7 A 13.23 13.23 0 0 0 781.987 30.566 A 17.586 17.586 0 0 0 779.95 31.95 Q 775.8 35.2 772.9 39.6 L 772.9 74 Z M 566.5 69 L 560.3 75 L 533.4 47.3 L 533.4 74 L 524.4 74 L 524.4 0 L 533.4 0 L 533.4 42.3 L 556.9 21 L 562.1 26.7 L 542 44.5 L 566.5 69 Z M 825.5 92.8 L 828.8 85 A 20.562 20.562 0 0 0 832.617 87.373 A 24.737 24.737 0 0 0 834.4 88.15 Q 837.159 89.228 840.959 89.376 A 31.788 31.788 0 0 0 842.2 89.4 A 21.701 21.701 0 0 0 846.721 88.957 Q 849.622 88.339 851.822 86.859 A 12.576 12.576 0 0 0 853.35 85.65 A 11.352 11.352 0 0 0 856.257 81.157 Q 857.4 78.056 857.4 73.7 L 857.4 67.3 Q 855.4 69.7 851.65 71.85 Q 847.9 74 842.7 74 Q 836.8 74 831.5 70.95 A 22.236 22.236 0 0 1 824.208 64.112 A 27.437 27.437 0 0 1 822.9 62 A 25.181 25.181 0 0 1 820.187 54.376 A 35.033 35.033 0 0 1 819.6 47.8 A 32.06 32.06 0 0 1 820.517 39.992 A 26.682 26.682 0 0 1 822.85 33.9 A 25.706 25.706 0 0 1 828.914 26.278 A 24.448 24.448 0 0 1 831.6 24.3 Q 837.1 20.8 843.7 20.8 A 22.366 22.366 0 0 1 848.52 21.301 A 18.715 18.715 0 0 1 851.7 22.3 A 25.705 25.705 0 0 1 855.528 24.268 A 20.998 20.998 0 0 1 857.9 26 L 857.9 22 L 866.1 22 L 866.1 72.8 Q 866.1 81.4 863.1 86.8 Q 860.1 92.2 854.75 94.7 A 25.811 25.811 0 0 1 848.146 96.721 A 35.243 35.243 0 0 1 842.2 97.2 Q 837.6 97.2 833.25 96.1 A 27.232 27.232 0 0 1 827.95 94.183 A 23.518 23.518 0 0 1 825.5 92.8 Z M 0 69.8 L 3.8 62.3 A 18.557 18.557 0 0 0 6.944 64.426 Q 8.498 65.27 10.35 65.95 A 24.073 24.073 0 0 0 17.961 67.387 A 27.464 27.464 0 0 0 18.8 67.4 Q 24.192 67.4 27.035 65.685 A 7.738 7.738 0 0 0 27.25 65.55 Q 30.1 63.7 30.1 60.8 A 7.123 7.123 0 0 0 29.786 58.653 A 6.212 6.212 0 0 0 29.05 57.1 A 6.384 6.384 0 0 0 28.121 56.006 Q 27.107 55.034 25.434 54.081 A 22.3 22.3 0 0 0 25.2 53.95 A 28.462 28.462 0 0 0 23.206 52.957 Q 21.09 51.995 18.101 50.946 A 103.602 103.602 0 0 0 17.1 50.6 A 46.616 46.616 0 0 1 12.702 48.857 Q 10.588 47.883 8.912 46.795 A 19.335 19.335 0 0 1 6.15 44.65 A 11.324 11.324 0 0 1 2.856 38.654 A 16.794 16.794 0 0 1 2.5 35.1 Q 2.5 29.1 7.75 24.95 Q 12.154 21.469 19.408 20.908 A 37.527 37.527 0 0 1 22.3 20.8 A 40.794 40.794 0 0 1 26.746 21.031 Q 29.054 21.284 31.07 21.815 A 25.234 25.234 0 0 1 31.2 21.85 Q 35.1 22.9 38.2 24.5 L 35.7 31.9 Q 33 30.3 29.55 29.3 A 25.024 25.024 0 0 0 25.067 28.453 A 31.837 31.837 0 0 0 21.9 28.3 A 20.632 20.632 0 0 0 18.963 28.495 Q 15.877 28.94 14 30.4 A 9.322 9.322 0 0 0 12.642 31.673 Q 11.94 32.492 11.605 33.365 A 4.529 4.529 0 0 0 11.3 35 A 4.921 4.921 0 0 0 12.795 38.552 A 7.082 7.082 0 0 0 13.4 39.1 A 9.88 9.88 0 0 0 14.7 39.969 Q 16.973 41.271 21.398 42.734 A 84.459 84.459 0 0 0 21.6 42.8 A 67.753 67.753 0 0 1 26.662 44.698 Q 32.589 47.217 35.4 50.1 Q 39.3 54.1 39.3 60.1 Q 39.3 66.848 34.049 70.855 A 16.618 16.618 0 0 1 33.65 71.15 Q 28.91 74.547 21.462 75.095 A 40.423 40.423 0 0 1 18.5 75.2 Q 12.6 75.2 7.85 73.7 A 30.883 30.883 0 0 1 4.01 72.215 Q 2.029 71.284 0.448 70.136 A 18.229 18.229 0 0 1 0 69.8 Z M 141.6 69.8 L 145.4 62.3 A 18.557 18.557 0 0 0 148.544 64.426 Q 150.098 65.27 151.95 65.95 A 24.073 24.073 0 0 0 159.561 67.387 A 27.464 27.464 0 0 0 160.4 67.4 Q 165.792 67.4 168.635 65.685 A 7.738 7.738 0 0 0 168.85 65.55 Q 171.7 63.7 171.7 60.8 A 7.123 7.123 0 0 0 171.386 58.653 A 6.212 6.212 0 0 0 170.65 57.1 A 6.384 6.384 0 0 0 169.721 56.006 Q 168.707 55.034 167.034 54.081 A 22.3 22.3 0 0 0 166.8 53.95 A 28.462 28.462 0 0 0 164.806 52.957 Q 162.69 51.995 159.701 50.946 A 103.602 103.602 0 0 0 158.7 50.6 A 46.616 46.616 0 0 1 154.302 48.857 Q 152.188 47.883 150.512 46.795 A 19.335 19.335 0 0 1 147.75 44.65 A 11.324 11.324 0 0 1 144.456 38.654 A 16.794 16.794 0 0 1 144.1 35.1 Q 144.1 29.1 149.35 24.95 Q 153.754 21.469 161.008 20.908 A 37.527 37.527 0 0 1 163.9 20.8 A 40.794 40.794 0 0 1 168.346 21.031 Q 170.654 21.284 172.67 21.815 A 25.234 25.234 0 0 1 172.8 21.85 Q 176.7 22.9 179.8 24.5 L 177.3 31.9 Q 174.6 30.3 171.15 29.3 A 25.024 25.024 0 0 0 166.667 28.453 A 31.837 31.837 0 0 0 163.5 28.3 A 20.632 20.632 0 0 0 160.563 28.495 Q 157.477 28.94 155.6 30.4 A 9.322 9.322 0 0 0 154.242 31.673 Q 153.54 32.492 153.205 33.365 A 4.529 4.529 0 0 0 152.9 35 A 4.921 4.921 0 0 0 154.395 38.552 A 7.082 7.082 0 0 0 155 39.1 A 9.88 9.88 0 0 0 156.3 39.969 Q 158.573 41.271 162.998 42.734 A 84.459 84.459 0 0 0 163.2 42.8 A 67.753 67.753 0 0 1 168.262 44.698 Q 174.189 47.217 177 50.1 Q 180.9 54.1 180.9 60.1 Q 180.9 66.848 175.649 70.855 A 16.618 16.618 0 0 1 175.25 71.15 Q 170.51 74.547 163.062 75.095 A 40.423 40.423 0 0 1 160.1 75.2 Q 154.2 75.2 149.45 73.7 A 30.883 30.883 0 0 1 145.61 72.215 Q 143.629 71.284 142.048 70.136 A 18.229 18.229 0 0 1 141.6 69.8 Z M 571 69.8 L 574.8 62.3 A 18.557 18.557 0 0 0 577.944 64.426 Q 579.498 65.27 581.35 65.95 A 24.073 24.073 0 0 0 588.961 67.387 A 27.464 27.464 0 0 0 589.8 67.4 Q 595.192 67.4 598.035 65.685 A 7.738 7.738 0 0 0 598.25 65.55 Q 601.1 63.7 601.1 60.8 A 7.123 7.123 0 0 0 600.786 58.653 A 6.212 6.212 0 0 0 600.05 57.1 A 6.384 6.384 0 0 0 599.121 56.006 Q 598.107 55.034 596.434 54.081 A 22.3 22.3 0 0 0 596.2 53.95 A 28.462 28.462 0 0 0 594.206 52.957 Q 592.09 51.995 589.101 50.946 A 103.602 103.602 0 0 0 588.1 50.6 A 46.616 46.616 0 0 1 583.702 48.857 Q 581.588 47.883 579.912 46.795 A 19.335 19.335 0 0 1 577.15 44.65 A 11.324 11.324 0 0 1 573.856 38.654 A 16.794 16.794 0 0 1 573.5 35.1 Q 573.5 29.1 578.75 24.95 Q 583.154 21.469 590.408 20.908 A 37.527 37.527 0 0 1 593.3 20.8 A 40.794 40.794 0 0 1 597.746 21.031 Q 600.054 21.284 602.07 21.815 A 25.234 25.234 0 0 1 602.2 21.85 Q 606.1 22.9 609.2 24.5 L 606.7 31.9 Q 604 30.3 600.55 29.3 A 25.024 25.024 0 0 0 596.067 28.453 A 31.837 31.837 0 0 0 592.9 28.3 A 20.632 20.632 0 0 0 589.963 28.495 Q 586.877 28.94 585 30.4 A 9.322 9.322 0 0 0 583.642 31.673 Q 582.94 32.492 582.605 33.365 A 4.529 4.529 0 0 0 582.3 35 A 4.921 4.921 0 0 0 583.795 38.552 A 7.082 7.082 0 0 0 584.4 39.1 A 9.88 9.88 0 0 0 585.7 39.969 Q 587.973 41.271 592.398 42.734 A 84.459 84.459 0 0 0 592.6 42.8 A 67.753 67.753 0 0 1 597.662 44.698 Q 603.589 47.217 606.4 50.1 Q 610.3 54.1 610.3 60.1 Q 610.3 66.848 605.049 70.855 A 16.618 16.618 0 0 1 604.65 71.15 Q 599.91 74.547 592.462 75.095 A 40.423 40.423 0 0 1 589.5 75.2 Q 583.6 75.2 578.85 73.7 A 30.883 30.883 0 0 1 575.01 72.215 Q 573.029 71.284 571.448 70.136 A 18.229 18.229 0 0 1 571 69.8 Z M 712.6 69.8 L 716.4 62.3 A 18.557 18.557 0 0 0 719.544 64.426 Q 721.098 65.27 722.95 65.95 A 24.073 24.073 0 0 0 730.561 67.387 A 27.464 27.464 0 0 0 731.4 67.4 Q 736.792 67.4 739.635 65.685 A 7.738 7.738 0 0 0 739.85 65.55 Q 742.7 63.7 742.7 60.8 A 7.123 7.123 0 0 0 742.386 58.653 A 6.212 6.212 0 0 0 741.65 57.1 A 6.384 6.384 0 0 0 740.721 56.006 Q 739.707 55.034 738.034 54.081 A 22.3 22.3 0 0 0 737.8 53.95 A 28.462 28.462 0 0 0 735.806 52.957 Q 733.69 51.995 730.701 50.946 A 103.602 103.602 0 0 0 729.7 50.6 A 46.616 46.616 0 0 1 725.302 48.857 Q 723.188 47.883 721.512 46.795 A 19.335 19.335 0 0 1 718.75 44.65 A 11.324 11.324 0 0 1 715.456 38.654 A 16.794 16.794 0 0 1 715.1 35.1 Q 715.1 29.1 720.35 24.95 Q 724.754 21.469 732.008 20.908 A 37.527 37.527 0 0 1 734.9 20.8 A 40.794 40.794 0 0 1 739.346 21.031 Q 741.654 21.284 743.67 21.815 A 25.234 25.234 0 0 1 743.8 21.85 Q 747.7 22.9 750.8 24.5 L 748.3 31.9 Q 745.6 30.3 742.15 29.3 A 25.024 25.024 0 0 0 737.667 28.453 A 31.837 31.837 0 0 0 734.5 28.3 A 20.632 20.632 0 0 0 731.563 28.495 Q 728.477 28.94 726.6 30.4 A 9.322 9.322 0 0 0 725.242 31.673 Q 724.54 32.492 724.205 33.365 A 4.529 4.529 0 0 0 723.9 35 A 4.921 4.921 0 0 0 725.395 38.552 A 7.082 7.082 0 0 0 726 39.1 A 9.88 9.88 0 0 0 727.3 39.969 Q 729.573 41.271 733.998 42.734 A 84.459 84.459 0 0 0 734.2 42.8 A 67.753 67.753 0 0 1 739.262 44.698 Q 745.189 47.217 748 50.1 Q 751.9 54.1 751.9 60.1 Q 751.9 66.848 746.649 70.855 A 16.618 16.618 0 0 1 746.25 71.15 Q 741.51 74.547 734.062 75.095 A 40.423 40.423 0 0 1 731.1 75.2 Q 725.2 75.2 720.45 73.7 A 30.883 30.883 0 0 1 716.61 72.215 Q 714.629 71.284 713.048 70.136 A 18.229 18.229 0 0 1 712.6 69.8 Z M 365.5 69.7 L 365.5 74 L 357.1 74 L 357.1 0 L 366.1 0 L 366.1 27.4 Q 368.1 25.1 371.95 22.95 A 16.584 16.584 0 0 1 377.181 21.128 A 22.424 22.424 0 0 1 381.1 20.8 Q 387.1 20.8 392.35 23.95 A 22.329 22.329 0 0 1 399.528 30.917 A 27.464 27.464 0 0 1 400.8 33.05 Q 404 39 404 47.5 A 33.315 33.315 0 0 1 403.313 54.388 A 27.75 27.75 0 0 1 402 58.8 A 29.367 29.367 0 0 1 398.839 64.804 A 25.482 25.482 0 0 1 396.65 67.55 A 24.894 24.894 0 0 1 390.519 72.464 A 23.302 23.302 0 0 1 389.1 73.2 A 20.006 20.006 0 0 1 381.734 75.16 A 19.209 19.209 0 0 1 380.5 75.2 Q 376 75.2 372.05 73.55 A 30.274 30.274 0 0 1 368.747 71.942 Q 366.922 70.903 365.5 69.7 Z M 513.1 23.9 L 510.4 31.5 A 30.422 30.422 0 0 0 507.496 30.224 A 23.42 23.42 0 0 0 505.05 29.45 A 20.543 20.543 0 0 0 502.007 28.924 A 26.355 26.355 0 0 0 499.4 28.8 A 15.889 15.889 0 0 0 492.147 30.443 A 16.132 16.132 0 0 0 487.65 33.85 Q 482.9 38.9 482.9 47.8 A 25.192 25.192 0 0 0 483.605 53.86 A 21.45 21.45 0 0 0 484.9 57.6 A 18.564 18.564 0 0 0 487.81 62.177 A 16.275 16.275 0 0 0 490.45 64.6 Q 494 67.2 498.8 67.2 Q 501.965 67.2 504.368 66.61 A 15.08 15.08 0 0 0 505.3 66.35 Q 507.989 65.503 511.076 63.912 A 49.095 49.095 0 0 0 511.1 63.9 L 513.9 71.5 Q 510.8 73.2 506.95 74.2 Q 503.1 75.2 498.2 75.2 A 26.803 26.803 0 0 1 491.161 74.31 A 22.074 22.074 0 0 1 485.25 71.75 Q 479.7 68.3 476.7 62.15 Q 473.7 56 473.7 48 Q 473.7 40.5 476.75 34.3 Q 479.8 28.1 485.5 24.45 A 23.067 23.067 0 0 1 495.168 21.029 A 29.608 29.608 0 0 1 498.9 20.8 Q 503.3 20.8 506.65 21.6 Q 510 22.4 513.1 23.9 Z M 945 23.9 L 942.3 31.5 A 30.422 30.422 0 0 0 939.396 30.224 A 23.42 23.42 0 0 0 936.95 29.45 A 20.543 20.543 0 0 0 933.907 28.924 A 26.355 26.355 0 0 0 931.3 28.8 A 15.889 15.889 0 0 0 924.047 30.443 A 16.132 16.132 0 0 0 919.55 33.85 Q 914.8 38.9 914.8 47.8 A 25.192 25.192 0 0 0 915.505 53.86 A 21.45 21.45 0 0 0 916.8 57.6 A 18.564 18.564 0 0 0 919.71 62.177 A 16.275 16.275 0 0 0 922.35 64.6 Q 925.9 67.2 930.7 67.2 Q 933.865 67.2 936.268 66.61 A 15.08 15.08 0 0 0 937.2 66.35 Q 939.889 65.503 942.976 63.912 A 49.095 49.095 0 0 0 943 63.9 L 945.8 71.5 Q 942.7 73.2 938.85 74.2 Q 935 75.2 930.1 75.2 A 26.803 26.803 0 0 1 923.061 74.31 A 22.074 22.074 0 0 1 917.15 71.75 Q 911.6 68.3 908.6 62.15 Q 905.6 56 905.6 48 Q 905.6 40.5 908.65 34.3 Q 911.7 28.1 917.4 24.45 A 23.067 23.067 0 0 1 927.068 21.029 A 29.608 29.608 0 0 1 930.8 20.8 Q 935.2 20.8 938.55 21.6 Q 941.9 22.4 945 23.9 Z M 120 26.2 L 120 22 L 128.2 22 L 128.2 61.4 A 12.15 12.15 0 0 0 128.302 63.036 Q 128.634 65.47 130.05 66.35 Q 131.9 67.5 134.1 67.5 L 132.2 74.5 A 17.722 17.722 0 0 1 127.935 74.028 Q 122.298 72.628 120.703 67.08 A 13.59 13.59 0 0 1 120.6 66.7 A 21.307 21.307 0 0 1 117.49 70.126 A 28.498 28.498 0 0 1 114.35 72.55 Q 110.4 75.2 104.3 75.2 Q 97.8 75.2 92.5 71.9 A 22.947 22.947 0 0 1 85.087 64.373 A 27.923 27.923 0 0 1 84.05 62.55 A 27.228 27.228 0 0 1 81.42 54.608 A 36.644 36.644 0 0 1 80.9 48.3 A 33.142 33.142 0 0 1 81.897 40.031 A 27.968 27.968 0 0 1 84.05 34.3 Q 87.2 28.1 92.75 24.45 A 22.297 22.297 0 0 1 103.945 20.844 A 27.388 27.388 0 0 1 105.5 20.8 A 22.584 22.584 0 0 1 110.294 21.29 A 18.703 18.703 0 0 1 113.65 22.35 A 26.002 26.002 0 0 1 117.937 24.644 A 22.103 22.103 0 0 1 120 26.2 Z M 452.1 26.2 L 452.1 22 L 460.3 22 L 460.3 61.4 A 12.15 12.15 0 0 0 460.402 63.036 Q 460.734 65.47 462.15 66.35 Q 464 67.5 466.2 67.5 L 464.3 74.5 A 17.722 17.722 0 0 1 460.035 74.028 Q 454.398 72.628 452.803 67.08 A 13.59 13.59 0 0 1 452.7 66.7 A 21.307 21.307 0 0 1 449.59 70.126 A 28.498 28.498 0 0 1 446.45 72.55 Q 442.5 75.2 436.4 75.2 Q 429.9 75.2 424.6 71.9 A 22.947 22.947 0 0 1 417.187 64.373 A 27.923 27.923 0 0 1 416.15 62.55 A 27.228 27.228 0 0 1 413.52 54.608 A 36.644 36.644 0 0 1 413 48.3 A 33.142 33.142 0 0 1 413.997 40.031 A 27.968 27.968 0 0 1 416.15 34.3 Q 419.3 28.1 424.85 24.45 A 22.297 22.297 0 0 1 436.045 20.844 A 27.388 27.388 0 0 1 437.6 20.8 A 22.584 22.584 0 0 1 442.394 21.29 A 18.703 18.703 0 0 1 445.75 22.35 A 26.002 26.002 0 0 1 450.037 24.644 A 22.103 22.103 0 0 1 452.1 26.2 Z M 691 26.2 L 691 22 L 699.2 22 L 699.2 61.4 A 12.15 12.15 0 0 0 699.302 63.036 Q 699.634 65.47 701.05 66.35 Q 702.9 67.5 705.1 67.5 L 703.2 74.5 A 17.722 17.722 0 0 1 698.935 74.028 Q 693.298 72.628 691.703 67.08 A 13.59 13.59 0 0 1 691.6 66.7 A 21.307 21.307 0 0 1 688.49 70.126 A 28.498 28.498 0 0 1 685.35 72.55 Q 681.4 75.2 675.3 75.2 Q 668.8 75.2 663.5 71.9 A 22.947 22.947 0 0 1 656.087 64.373 A 27.923 27.923 0 0 1 655.05 62.55 A 27.228 27.228 0 0 1 652.42 54.608 A 36.644 36.644 0 0 1 651.9 48.3 A 33.142 33.142 0 0 1 652.897 40.031 A 27.968 27.968 0 0 1 655.05 34.3 Q 658.2 28.1 663.75 24.45 A 22.297 22.297 0 0 1 674.945 20.844 A 27.388 27.388 0 0 1 676.5 20.8 A 22.584 22.584 0 0 1 681.294 21.29 A 18.703 18.703 0 0 1 684.65 22.35 A 26.002 26.002 0 0 1 688.937 24.644 A 22.103 22.103 0 0 1 691 26.2 Z M 50.8 57.7 L 50.8 0 L 59.8 0 L 59.8 56.8 A 20.644 20.644 0 0 0 59.988 59.688 Q 60.45 62.952 62.05 64.8 A 7.363 7.363 0 0 0 66.634 67.276 A 10.724 10.724 0 0 0 68.3 67.4 Q 70.2 67.4 72.05 66.95 A 22.192 22.192 0 0 0 73.513 66.544 Q 74.448 66.247 75.2 65.9 L 77.4 73.2 Q 76.001 73.822 74.088 74.323 A 34.978 34.978 0 0 1 72.95 74.6 A 23.816 23.816 0 0 1 69.795 75.085 A 30.514 30.514 0 0 1 67.1 75.2 A 20.862 20.862 0 0 1 62.21 74.646 A 17.544 17.544 0 0 1 58.8 73.45 A 12.683 12.683 0 0 1 53.475 68.685 A 15.856 15.856 0 0 1 52.95 67.8 Q 51.216 64.654 50.88 60.012 A 32.105 32.105 0 0 1 50.8 57.7 Z M 621.8 57.7 L 621.8 0 L 630.8 0 L 630.8 56.8 A 20.644 20.644 0 0 0 630.988 59.688 Q 631.45 62.952 633.05 64.8 A 7.363 7.363 0 0 0 637.634 67.276 A 10.724 10.724 0 0 0 639.3 67.4 Q 641.2 67.4 643.05 66.95 A 22.192 22.192 0 0 0 644.513 66.544 Q 645.448 66.247 646.2 65.9 L 648.4 73.2 Q 647.001 73.822 645.088 74.323 A 34.978 34.978 0 0 1 643.95 74.6 A 23.816 23.816 0 0 1 640.795 75.085 A 30.514 30.514 0 0 1 638.1 75.2 A 20.862 20.862 0 0 1 633.21 74.646 A 17.544 17.544 0 0 1 629.8 73.45 A 12.683 12.683 0 0 1 624.475 68.685 A 15.856 15.856 0 0 1 623.95 67.8 Q 622.216 64.654 621.88 60.012 A 32.105 32.105 0 0 1 621.8 57.7 Z M 963.9 71.75 A 24.559 24.559 0 0 0 968.498 73.84 Q 972.553 75.2 977.2 75.2 Q 984.6 75.2 990.45 71.8 Q 996.3 68.4 999.7 62.25 A 26.255 26.255 0 0 0 1002.353 55.109 A 34.184 34.184 0 0 0 1003.1 47.8 A 34.542 34.542 0 0 0 1002.615 41.891 A 25.795 25.795 0 0 0 999.65 33.45 Q 996.2 27.4 990.35 24.1 A 24.848 24.848 0 0 0 985.709 22.073 A 27.738 27.738 0 0 0 977.2 20.8 A 31.325 31.325 0 0 0 975.62 20.839 A 26.169 26.169 0 0 0 964 24.1 Q 958.1 27.4 954.7 33.5 A 26.023 26.023 0 0 0 951.951 41.09 A 35.006 35.006 0 0 0 951.3 48 A 34.82 34.82 0 0 0 951.565 52.354 A 27.451 27.451 0 0 0 954.65 62.15 Q 958 68.3 963.9 71.75 Z M 977.2 67.2 Q 985.1 67.2 989.5 61.85 A 18.802 18.802 0 0 0 993.319 53.76 A 27.105 27.105 0 0 0 993.9 48 Q 993.9 42.8 991.7 38.45 A 19.198 19.198 0 0 0 987.528 32.881 A 18.17 18.17 0 0 0 985.75 31.45 Q 982 28.8 977.2 28.8 A 19.249 19.249 0 0 0 971.974 29.472 A 14.037 14.037 0 0 0 964.9 34 A 17.878 17.878 0 0 0 961.226 41.374 Q 960.5 44.306 960.5 47.8 Q 960.5 53 962.7 57.45 A 19.437 19.437 0 0 0 966.23 62.49 A 17.627 17.627 0 0 0 968.65 64.55 Q 972.4 67.2 977.2 67.2 Z M 119.2 60.7 L 119.2 32.8 Q 116.5 30.9 113.25 29.75 Q 110 28.6 106.4 28.6 A 15.924 15.924 0 0 0 101.429 29.354 A 14.024 14.024 0 0 0 97.95 31.05 A 16.301 16.301 0 0 0 92.931 36.474 A 19.962 19.962 0 0 0 92.2 37.85 A 20.663 20.663 0 0 0 90.447 43.527 A 27.678 27.678 0 0 0 90.1 48 Q 90.1 53.6 92.2 57.95 A 17.602 17.602 0 0 0 95.306 62.496 A 15.697 15.697 0 0 0 98 64.75 Q 101.7 67.2 106.3 67.2 Q 110.1 67.2 113.5 65.35 Q 116.9 63.5 119.2 60.7 Z M 451.3 60.7 L 451.3 32.8 Q 448.6 30.9 445.35 29.75 Q 442.1 28.6 438.5 28.6 A 15.924 15.924 0 0 0 433.529 29.354 A 14.024 14.024 0 0 0 430.05 31.05 A 16.301 16.301 0 0 0 425.031 36.474 A 19.962 19.962 0 0 0 424.3 37.85 A 20.663 20.663 0 0 0 422.547 43.527 A 27.678 27.678 0 0 0 422.2 48 Q 422.2 53.6 424.3 57.95 A 17.602 17.602 0 0 0 427.406 62.496 A 15.697 15.697 0 0 0 430.1 64.75 Q 433.8 67.2 438.4 67.2 Q 442.2 67.2 445.6 65.35 Q 449 63.5 451.3 60.7 Z M 690.2 60.7 L 690.2 32.8 Q 687.5 30.9 684.25 29.75 Q 681 28.6 677.4 28.6 A 15.924 15.924 0 0 0 672.429 29.354 A 14.024 14.024 0 0 0 668.95 31.05 A 16.301 16.301 0 0 0 663.931 36.474 A 19.962 19.962 0 0 0 663.2 37.85 A 20.663 20.663 0 0 0 661.447 43.527 A 27.678 27.678 0 0 0 661.1 48 Q 661.1 53.6 663.2 57.95 A 17.602 17.602 0 0 0 666.306 62.496 A 15.697 15.697 0 0 0 669 64.75 Q 672.7 67.2 677.3 67.2 Q 681.1 67.2 684.5 65.35 Q 687.9 63.5 690.2 60.7 Z M 366.1 35.4 L 366.1 63.2 A 17.99 17.99 0 0 0 369.73 65.385 A 21.802 21.802 0 0 0 371.5 66.1 A 19.462 19.462 0 0 0 377.664 67.196 A 22.039 22.039 0 0 0 378.1 67.2 Q 383 67.2 386.75 64.8 Q 390.5 62.4 392.65 58 Q 394.8 53.6 394.8 47.8 Q 394.8 41.8 392.65 37.5 Q 390.5 33.2 386.95 30.9 Q 383.4 28.6 379.1 28.6 A 14.741 14.741 0 0 0 373.473 29.663 A 14.054 14.054 0 0 0 371.35 30.75 Q 367.9 32.9 366.1 35.4 Z M 857.1 60 L 857.1 32.8 Q 854.934 31.225 851.897 29.941 A 36.018 36.018 0 0 0 851.8 29.9 A 16.249 16.249 0 0 0 847.996 28.849 A 22.135 22.135 0 0 0 844.6 28.6 Q 840.5 28.6 836.9 30.8 Q 833.3 33 831.05 37.15 Q 828.8 41.3 828.8 47.3 A 24.32 24.32 0 0 0 829.278 52.236 A 18.311 18.311 0 0 0 831.05 57.2 A 18.576 18.576 0 0 0 833.961 61.275 A 15.802 15.802 0 0 0 836.9 63.7 Q 840.5 66 844.7 66 A 15.276 15.276 0 0 0 849.278 65.332 A 13.606 13.606 0 0 0 851.9 64.2 A 20.855 20.855 0 0 0 854.881 62.184 A 16.309 16.309 0 0 0 857.1 60 Z M 306.4 59.8 L 308.8 40 Q 306.9 36.8 303.65 34.8 A 13.562 13.562 0 0 0 297.061 32.818 A 16.34 16.34 0 0 0 296.3 32.8 A 13.358 13.358 0 0 0 289.084 34.935 A 16.173 16.173 0 0 0 288.75 35.15 A 16.502 16.502 0 0 0 283.83 40.277 A 20.056 20.056 0 0 0 283.05 41.65 A 18.937 18.937 0 0 0 281.178 47.521 A 24.803 24.803 0 0 0 280.9 51.3 Q 280.9 58.9 284.7 62.75 A 12.433 12.433 0 0 0 293.711 66.599 A 15.031 15.031 0 0 0 293.9 66.6 Q 297.8 66.6 301.15 64.45 Q 304.5 62.3 306.4 59.8 Z M 883.963 73.262 A 6.418 6.418 0 0 0 888.6 75.2 A 8.605 8.605 0 0 0 889.222 75.178 A 6.461 6.461 0 0 0 893.4 73.35 Q 895.3 71.5 895.3 68.5 A 6.225 6.225 0 0 0 894.721 65.829 A 6.955 6.955 0 0 0 893.25 63.8 A 8.478 8.478 0 0 0 892.729 63.331 A 6.325 6.325 0 0 0 888.6 61.8 A 8.813 8.813 0 0 0 886.747 61.985 A 5.979 5.979 0 0 0 883.7 63.6 A 5.927 5.927 0 0 0 882.132 66.44 A 8.624 8.624 0 0 0 881.9 68.5 Q 881.9 71.2 883.9 73.2 A 8.317 8.317 0 0 0 883.963 73.262 Z" vector-effect="non-scaling-stroke"/></g></svg>