<?xml version="1.0" encoding="UTF-8" standalone="no"?>
<!DOCTYPE svg PUBLIC "-//W3C//DTD SVG 1.1//EN" "http://www.w3.org/Graphics/SVG/1.1/DTD/svg11.dtd">
<svg width="100%" height="100%" viewBox="0 0 2630 863" version="1.1" xmlns="http://www.w3.org/2000/svg" xmlns:xlink="http://www.w3.org/1999/xlink" xml:space="preserve" xmlns:serif="http://www.serif.com/" style="fill-rule:evenodd;clip-rule:evenodd;stroke-linejoin:round;stroke-miterlimit:2;">
    <g transform="matrix(4.16667,0,0,4.16667,0,0)">
        <path d="M413.417,78.008C387.118,78.008 373.68,98.707 373.68,129.889C373.68,159.366 388.211,181.491 413.417,181.491C441.922,181.491 452.61,155.406 452.61,129.889C452.59,103.247 439.159,78.008 413.409,78.008M343.537,0.618L374.776,0.618L374.776,75.455L375.329,75.455C383.825,61.284 401.635,52.493 417.532,52.493C462.196,52.493 483.852,87.658 483.852,130.469C483.852,169.86 464.672,207 422.735,207C403.553,207 382.999,202.19 373.676,182.907L373.135,182.907L373.135,203.045L343.534,203.045L343.534,0.622L343.537,0.618Z" style="fill:#E5383B;fill-rule:nonzero;"/>
        <path d="M599.069,105.516C596.6,87.656 583.997,78.01 566.731,78.01C550.555,78.01 527.813,86.803 527.813,131.314C527.813,155.696 538.223,181.5 565.36,181.5C583.444,181.5 596.045,169.01 599.069,148.03L630.307,148.03C624.549,186.019 601.809,207 565.36,207C520.961,207 496.573,174.404 496.573,131.314C496.573,87.09 519.867,52.502 566.456,52.502C599.34,52.502 627.301,69.51 630.307,105.516L599.069,105.516Z" style="fill:#E5383B;fill-rule:nonzero;"/>
        <path d="M234.316,202.603L0,202.603L109.421,0.618L343.74,0.618L234.316,202.603Z" style="fill:#E5383B;fill-rule:nonzero;"/>
    </g>
</svg>
